<svg width="120" height="123" viewBox="0 0 120 123" fill="none" xmlns="http://www.w3.org/2000/svg">
<path d="M50.6933 41.7199C50.9012 41.83 51.0741 41.8999 51.2862 42.0704C51.6103 42.3309 51.8913 42.5015 52.3302 42.4424C53.1379 42.3363 53.7983 41.6541 54.2224 41.0055C54.9612 39.8775 54.8261 38.3802 53.8078 37.4496C52.7475 36.48 51.0485 36.7929 50.2435 37.9357C49.4264 39.0946 49.6641 40.7181 50.6608 41.6823C50.6743 41.6944 50.6838 41.7065 50.6933 41.7199Z" fill="#0F0602"/>
<path d="M57.5014 50.5116C57.5095 50.5156 57.519 50.5183 57.5257 50.5223C59.0141 51.3616 60.7173 50.7036 62.1327 49.9892C63.5549 49.2721 64.9001 48.4033 66.2832 47.6137C67.4082 46.9704 68.5725 46.3755 69.6084 45.5926C70.1108 45.2126 70.5714 44.7789 70.959 44.282C71.2629 43.8912 71.4776 43.4414 71.7613 43.0398C70.7348 42.8303 69.657 42.2825 69.2694 41.3357C69.0627 40.8308 70.0217 40.8644 70.2472 41.0698C71.2764 42.0045 72.3137 42.6585 73.7696 42.5161C75.231 42.3738 76.4547 41.5116 77.4123 40.4494C78.3374 39.4221 79.0263 38.2122 79.657 36.9902C80.3485 35.65 81.0063 34.2856 81.5276 32.8689C82.5473 30.1012 82.9984 26.9831 81.8693 24.1725C80.8969 21.7499 78.4604 19.6899 75.697 20.0512C72.8917 20.4178 71.3845 23.2539 70.2256 25.4979C70.0487 25.8403 69.133 25.7288 69.3261 25.3381C70.1324 23.7051 71.1049 21.9916 72.446 20.8139C72.1867 20.8005 71.9355 20.6823 71.9179 20.454C71.7491 18.1107 70.1716 16.1783 68.5306 14.6112C67.0057 13.1555 65.227 11.9496 63.3172 11.0526C61.1103 10.0172 58.7129 9.36861 56.2791 9.17389C56.0765 9.17523 55.8753 9.17792 55.6727 9.17792C55.5782 9.17792 55.5025 9.15778 55.4458 9.12689C54.3693 9.08661 53.2889 9.13495 52.2192 9.28266C49.9474 9.5969 47.7567 10.3019 45.6011 11.0593C43.8318 11.6824 42.0274 12.3028 40.4188 13.275C40.3283 13.3381 40.2324 13.3972 40.1352 13.4523C39.9704 13.557 39.8083 13.6658 39.6489 13.7786C32.8945 18.5915 32.7918 27.7082 33.9682 35.1504C34.2883 34.7718 34.6949 34.4575 35.2027 34.2427C36.9261 33.5108 39.0979 33.9432 40.77 34.6173C42.5379 35.3291 43.9507 36.4786 45.2027 37.8684C46.9409 36.4235 48.9196 35.1357 51.1549 34.6522C54.8353 33.8559 58.8426 35.9078 60.154 39.4678C60.7375 41.0497 60.8348 42.9606 60.3985 44.5882C59.9933 46.0989 59.0006 47.1987 57.6351 47.8849C58.1943 48.6342 57.8931 49.7354 57.5014 50.5116ZM71.7599 25.1125C71.8545 24.3605 72.6554 23.4298 73.0768 23.0189C73.7575 22.3555 74.707 22.0373 75.6389 22.2978C76.7072 22.5959 77.3961 23.5641 77.9012 24.4853C78.4293 25.4482 79.1708 26.9656 78.7453 28.0668C78.671 28.2588 78.3334 28.2105 78.2429 28.0668C77.785 27.3363 77.7297 26.4083 77.4163 25.6066C77.1111 24.8264 76.7072 23.9965 76.1089 23.3949C75.3148 22.5973 74.472 22.7101 73.6886 23.4379C73.3874 23.7172 72.7256 24.3591 72.4852 24.9312C74.6367 24.7015 75.932 27.1389 76.3899 28.8739C76.5398 29.4405 75.3553 29.556 75.2256 29.0807C74.9703 28.146 74.5652 27.2208 73.925 26.4809C73.6697 26.1868 73.274 25.7732 72.8553 25.7315C72.3799 25.6859 71.9828 26.0672 71.7072 26.4097C70.5322 27.8667 70.6673 29.9629 71.7099 31.4334C72.2097 32.1384 72.8418 32.8058 73.1146 33.6424C73.2105 33.9365 73.2659 34.2373 73.2956 34.5421C73.9317 34.0265 74.6678 33.6075 75.3391 33.159C75.882 32.7964 76.4304 32.4432 76.9868 32.1021C77.2542 31.9383 77.5163 31.7597 77.8337 31.714C78.2334 31.6576 78.744 31.8027 78.5373 32.274C78.4698 32.4298 78.5238 32.3264 78.4658 32.3438C78.459 32.3519 78.4495 32.3613 78.4387 32.3734C78.332 32.4808 78.1916 32.5547 78.0646 32.6352C77.6203 32.9186 77.1867 33.2181 76.7437 33.5054C75.466 34.334 74.0884 35.0296 73.2591 36.2247C73.1024 37.714 72.7418 39.3093 73.5738 40.6509C73.7804 40.9852 72.9161 41.1531 72.7337 40.8792C72.1178 39.9526 72.0314 38.9481 72.0706 37.9195C71.9625 37.9275 71.8518 37.9114 71.7559 37.8845C71.7437 37.8819 71.7316 37.8778 71.7208 37.8751C71.5965 37.8402 71.5087 37.7395 71.4911 37.616C71.4884 37.5945 71.4844 37.5717 71.4817 37.5502C71.4749 37.4991 71.502 37.4508 71.5384 37.4105C71.6667 36.8196 71.8815 36.261 72.1962 35.7574C72.1989 35.5909 72.1975 35.4244 72.1894 35.2579C72.1327 33.9848 71.5776 33.1026 70.8253 32.1102C70.2121 31.3018 69.7461 30.4665 69.6205 29.4446C69.4247 27.8533 70.1824 25.7584 71.7599 25.1125Z" fill="#603A26"/>
<path d="M10.0179 19.1274C9.41278 19.1731 9.1278 19.9479 9.10754 20.4555C9.08593 20.994 9.35471 21.4694 9.74098 21.8306C10.6851 22.7142 12.2329 22.9358 13.4714 22.9842C18.4889 23.1789 22.9987 20.0271 27.3436 17.9739C29.4101 16.9976 31.5197 16.1167 33.6388 15.2586C34.7085 14.8262 35.7796 14.3978 36.8493 13.9614C37.7798 13.5813 38.755 13.0442 39.7517 12.7971C40.1367 12.5567 40.5351 12.3338 40.9497 12.1297C43.0999 11.0715 45.4338 10.2671 47.7258 9.57018C49.8544 8.92426 52.0329 8.46768 54.2628 8.41128C55.3852 8.38308 56.5089 8.45023 57.6204 8.60197C60.1758 8.46634 62.719 8.16151 65.2622 7.87413C70.6917 7.26044 76.2225 6.69643 81.6129 7.91039C84.1291 8.47708 86.5615 9.34055 89.017 10.1154C91.5426 10.9117 94.0912 11.5066 96.7263 11.8034C97.4016 11.8799 97.1193 12.5299 96.5737 12.5352C94.2722 12.5567 92.018 12.0115 89.8219 11.3401C89.5802 11.3038 89.3397 11.2716 89.0993 11.2528C88.2376 11.187 87.3705 11.1749 86.5061 11.2112C84.6842 11.2864 82.8662 11.5899 81.1104 12.076C77.6542 13.0335 74.5613 14.7161 71.6156 16.7062C72.3611 17.8007 72.9014 19.0133 73.0202 20.3575C74.0075 19.6619 75.1799 19.2563 76.6007 19.3356C79.6464 19.5048 82.1301 21.6628 83.0621 24.4909C84.179 27.8803 83.239 31.4537 81.8141 34.5973C80.5513 37.3838 79.017 40.788 76.1982 42.3403C75.1636 42.9097 73.9927 43.1514 72.819 43.1407C72.688 44.3332 71.3279 45.5028 70.4716 46.1487C69.1885 47.1169 67.7042 47.8166 66.313 48.6143C64.0008 49.941 60.8714 52.2132 58.0621 51.4544C58.1877 51.9607 58.2188 52.4804 58.0891 53.0028C57.9203 53.6823 57.4124 54.1174 56.8573 54.5081C55.5 55.4629 54.2587 56.6339 52.6812 57.2315C50.1988 58.1728 46.4522 57.3899 45.6283 54.531C45.6188 54.5242 45.6107 54.5189 45.6026 54.5108C45.5999 54.5081 45.5972 54.5054 45.5932 54.5028C45.5378 54.4907 45.4878 54.4678 45.4622 54.4329C44.9003 54.2382 44.3533 53.9978 43.8185 53.7427C42.9946 53.3506 42.0505 52.9786 41.4562 52.2588C41.3225 52.0963 41.2077 51.9285 41.1105 51.7552C40.9335 52.5059 40.7161 53.2485 40.4946 53.9911C40.0259 55.5569 39.7301 57.1133 39.4978 58.7288C39.0251 62.0135 38.4376 65.2672 37.268 68.3867C35.2434 73.7891 32.0262 78.6261 29.1467 83.5948C27.6124 86.2416 26.1578 88.9354 24.7923 91.6722C23.4714 94.3203 22.3463 97.0598 21.0214 99.7026C19.9692 101.803 18.4336 104.604 15.6972 104.333C14.2115 104.185 12.7191 103.743 11.2847 103.346C9.81797 102.939 8.1351 101.989 6.66022 102.764C5.37038 103.441 4.18183 104.439 3.02975 105.32C2.23694 105.927 0.478434 107.499 1.73316 108.521C2.54758 109.185 4.06568 108.685 4.96114 108.497C6.55082 108.163 8.1459 107.859 9.73828 107.536C9.80446 107.522 9.86794 107.519 9.92872 107.522C10.0246 107.439 10.1219 107.357 10.2178 107.275C11.0052 106.609 11.8371 105.929 12.8555 105.672C13.1 105.61 13.5902 105.795 13.366 106.101C12.8366 106.826 11.8966 107.288 11.228 107.885C10.6067 108.439 9.90711 109.068 9.55865 109.839C9.33444 110.337 9.18993 111.809 10.0705 111.848C10.735 111.877 11.4819 110.689 11.8412 110.252C12.8015 109.084 13.8185 107.945 15.3177 107.509C16.4441 107.181 17.7758 107.013 18.9252 107.354C19.4708 106.817 20.0638 106.33 20.6067 105.886C20.7688 105.754 21.3388 105.817 21.2253 106.119C20.5432 107.946 17.3976 109.625 18.543 111.904C18.7267 112.271 19.1616 112.762 19.6194 112.753C20.1137 112.742 20.4446 112.168 20.658 111.798C21.1983 110.865 21.748 109.982 22.4854 109.183C23.7158 107.85 25.2853 106.54 27.1896 106.51C27.7218 106.502 28.2458 106.57 28.7685 106.434C29.2439 106.309 29.6761 106.072 30.0759 105.79C30.8863 105.218 31.5481 104.447 32.1626 103.679C34.8314 100.343 36.5737 96.2863 38.4646 92.4913C40.5121 88.3821 42.5259 84.2582 44.5073 80.1181C45.5 78.0433 46.5048 75.9753 47.5057 73.9046C48.0945 72.688 48.7253 71.4928 49.618 70.4977C49.4492 70.5353 49.2804 70.5716 49.1115 70.6078C48.4565 70.7488 47.9743 70.0022 48.7793 69.8303C51.02 69.3523 53.2377 68.7882 55.4392 68.1584C57.4732 67.577 59.5356 66.9767 61.4846 66.1468C62.3625 65.7735 63.2296 65.3089 63.9089 64.6307C64.491 64.0519 64.907 63.3402 65.3176 62.6379C65.9727 61.5166 66.648 60.3913 67.8082 59.7856C67.6137 59.7453 67.4138 59.7198 67.2058 59.7104C66.2766 59.6701 65.3487 59.8474 64.433 59.9817C62.819 60.2194 61.1388 60.3483 59.7436 59.3452C59.3952 59.094 60.0016 58.8738 60.2379 59.0256C62.0613 60.1912 64.5505 59.0873 66.5318 58.9718C68.5334 58.855 70.0313 59.6648 71.4954 60.9512C73.216 62.462 75.011 63.821 77.0316 64.9154C78.8616 65.9064 80.8281 66.4973 82.7204 67.3379C83.9332 67.8778 85.5107 68.7278 86.0658 70.0358C86.9397 69.2918 87.9054 68.6634 88.9508 68.1947C89.206 68.0806 89.8057 68.3303 89.4329 68.5989C87.6447 69.8867 85.9983 71.2497 84.7004 73.0452C83.3416 74.9225 82.6191 77.0268 81.9937 79.2318C81.4589 81.1172 80.793 82.9086 79.8314 84.6221C78.9521 86.1892 77.9176 87.665 76.8438 89.1046C74.6437 92.0562 72.2233 94.8937 70.5607 98.1972C69.641 100.025 69.0832 101.934 68.6712 103.93C68.2215 106.111 67.6353 108.172 66.779 110.233C65.9335 112.269 65.0043 114.314 64.6477 116.506C64.4843 117.51 64.4384 118.54 64.5842 119.55C64.6707 120.148 64.9097 121.45 65.4824 122.039C66.205 119.478 67.0842 116.952 68.1391 114.509C68.6915 113.231 69.2628 111.937 69.9705 110.736C70.5094 109.82 71.1658 109.022 72.1815 108.625C72.3692 108.551 72.8716 108.549 72.9392 108.823C73.3903 110.678 73.0054 112.531 73.1202 114.407C73.1701 115.23 73.3214 116.065 73.7023 116.807C73.8684 117.132 74.2155 117.701 74.5694 117.869C75.0732 118.105 75.2271 117.547 75.3109 117.177C75.508 116.309 75.3797 115.34 75.4108 114.455C75.4446 113.47 75.5054 112.48 75.6215 111.5C75.8606 109.496 76.3022 107.54 76.8951 105.611C76.9843 105.322 77.6677 105.395 77.5961 105.736C77.4435 106.467 77.3071 107.201 77.1828 107.938C77.3368 107.973 77.4719 108.04 77.5367 108.143C78.1053 109.029 78.5267 110 78.9926 110.941C79.4329 111.83 79.9691 112.673 80.3757 113.577C80.8822 114.705 81.3616 119.044 83.5726 117.529C85.2582 116.374 84.41 113.64 83.7522 112.144C83.2106 110.913 82.5542 109.732 82.0586 108.484C81.0375 106.303 80.9943 103.966 82.2422 101.797C83.4767 99.6542 85.2852 97.7876 85.9997 95.3772C86.2995 94.3646 86.4481 93.2917 86.9424 92.3463C87.4543 91.3673 88.3349 90.7456 89.1236 90.0043C90.874 88.3593 92.253 86.3692 93.6631 84.4421C95.2041 82.3352 96.7317 80.2161 98.243 78.0863C99.645 76.1109 101.004 74.008 101.675 71.6607C102.037 70.3957 102.095 69.0877 101.705 67.8227C101.362 66.7108 100.773 65.6943 100.154 64.714C98.7657 62.5184 97.3219 60.3563 95.9065 58.1769C94.5113 56.0283 93.0445 53.9105 91.7506 51.6988C90.5985 49.7288 89.7868 47.595 89.8611 45.288C89.8678 45.0825 90.3095 45.0852 90.327 45.288C90.5675 47.9724 91.9694 50.4056 93.393 52.6388C94.1817 53.8783 94.988 55.107 95.7971 56.3331C95.3135 54.6344 94.8935 52.9289 94.6652 51.1563C94.1196 46.937 94.5153 42.3941 96.8938 38.7428C98.7995 35.818 102.256 33.3605 105.893 33.5794C106.403 33.6103 106.391 34.0696 105.893 34.1112C103.831 34.2818 101.933 34.9747 100.304 36.2558C93.8697 41.3171 95.4081 50.5547 96.6939 57.6894C97.2395 58.5139 97.7865 59.3398 98.3281 60.1657C99.6531 62.1853 101.175 64.1795 102.234 66.3536C103.289 68.521 103.232 70.683 102.366 72.9055C101.502 75.1226 100.143 77.1114 98.7617 79.0357C97.6082 80.6405 96.4291 82.2277 95.2609 83.8217C95.0785 84.187 94.9083 84.559 94.7976 84.9524C94.5626 85.7863 94.9205 86.5021 95.2325 87.2635C95.5337 87.9967 95.8187 88.7313 95.9834 89.5075C96.0132 89.6471 96.0118 89.8727 96.0739 90.007C96.0294 90.2326 96.105 90.3172 96.2981 90.2608C96.4454 90.3065 96.5493 90.2568 96.6088 90.1091C96.8721 89.8915 97.0315 89.5679 97.1828 89.2644C97.0815 88.7205 96.987 88.1753 96.9221 87.6261C96.679 85.5594 96.9694 83.6149 97.6272 81.6503C97.719 81.3764 98.3794 81.4422 98.3011 81.7712C97.9256 83.3437 97.7136 85.0034 97.8284 86.6203C97.9337 88.1082 98.2471 89.5894 98.4888 91.0598C98.5901 91.6749 98.5982 92.8418 99.2871 93.1184C100.054 93.426 100.689 92.6216 100.909 91.9891C101.316 90.8248 100.955 89.4054 101.647 88.3244C101.622 87.7657 101.643 87.2004 101.548 86.6471C101.462 86.1422 101.266 85.6709 101.075 85.1982C100.505 83.7841 100.076 81.9095 101.792 81.1212C102.113 80.9735 102.889 81.3388 102.399 81.6288C101.104 82.3956 101.842 84.1803 102.253 85.217C102.518 85.8844 102.693 86.5384 102.737 87.2568C102.782 88.0034 102.708 88.7904 102.922 89.5155C103.078 90.05 103.564 90.9927 104.26 90.892C105.062 90.7751 105.384 89.6807 105.501 89.0348C105.775 87.5334 105.821 85.9206 105.752 84.3951C105.685 84.2622 105.62 84.1266 105.563 83.9869C105.062 82.7716 104.687 81.0917 105.331 79.8777C105.45 79.6535 105.987 79.636 106.019 79.9381C106.082 80.5773 105.996 81.2085 106.044 81.8504C106.093 82.495 106.241 83.1261 106.474 83.7291C106.891 84.8114 107.485 85.8038 108.378 86.5357C109.41 83.8969 109.175 80.8929 109.255 78.1132C109.414 72.594 109.503 67.0653 109.317 61.5461C109.225 58.8161 109.043 56.0873 108.783 53.368C108.652 51.9916 108.519 50.6124 108.363 49.2387C108.209 47.8824 107.98 46.4952 107.95 45.1308C107.945 44.8985 108.433 44.8918 108.502 45.0825C109.022 46.5247 109.272 48.1147 109.519 49.6254C109.519 49.6281 109.519 49.6295 109.521 49.6321C109.586 49.6281 109.649 49.6335 109.711 49.6496C110.682 49.9128 111.674 49.9236 112.645 49.6469C114.688 49.0641 116.426 47.4835 117.406 45.6331C118.591 43.3918 118.758 40.7262 118.624 38.2446C118.351 33.1833 117.445 27.8803 115.449 23.1977C113.451 18.5137 110.053 14.5455 106.657 10.8003C104.96 8.92829 103.119 7.19867 100.936 5.89474C98.9305 4.69689 96.7195 3.85223 94.4586 3.26942C89.8476 2.08097 85.061 1.86611 80.3257 1.61903C74.6639 1.32359 68.9954 0.923417 63.3268 0.79853C60.5121 0.732729 57.6718 0.768986 54.8638 1.11142C52.1734 1.43908 49.5181 2.01517 46.8992 2.70004C44.2709 3.38759 41.675 4.19063 39.0724 4.96681C36.6521 5.68793 34.2358 6.45606 31.9465 7.53036C29.7855 8.54423 27.8758 9.90322 26.0484 11.4207C24.3466 12.8334 22.6921 14.3253 20.8147 15.5097C19.0508 16.6216 17.1599 17.336 15.084 17.5845C13.4322 17.7819 11.7115 17.8154 10.2839 18.5836C10.5527 18.7125 10.4568 19.0938 10.0179 19.1274Z" fill="#603A26"/>
<path d="M77.4453 32.0103C77.4575 31.9223 77.5238 31.925 77.4453 32.0103V32.0103Z" fill="#603A26"/>
<path d="M48.9575 56.7748C50.2123 57.1629 51.5791 56.9709 52.7366 56.3787C53.9089 55.7797 54.8651 54.8639 55.9402 54.12C56.5183 53.7198 56.9924 53.325 57.0761 52.5891C57.1234 52.1728 57.0207 51.778 56.9532 51.3765C56.0145 52.5945 54.6085 53.3948 53.1539 53.8903C51.2279 54.547 48.9683 55.1097 46.9262 54.8048C46.7398 54.7766 46.5548 54.739 46.3711 54.696C46.9978 55.6763 47.7838 56.4122 48.9575 56.7748Z" fill="#A88273"/>
<path d="M62.9554 109.996C62.4138 110.289 61.933 110.624 61.5792 111.136C61.3806 111.423 61.228 111.74 61.0821 112.056C61.02 112.193 60.9579 112.331 60.8984 112.471C61.024 112.91 61.2793 113.074 61.6629 112.965C62.8838 112.794 63.8468 111.81 64.9922 111.405C65.1353 111.057 65.2812 110.71 65.4257 110.365C65.8903 109.257 66.3482 108.144 66.698 106.993C66.7102 106.952 66.7223 106.911 66.7345 106.87C66.3874 107.305 66.0227 107.725 65.6283 108.12C64.8287 108.915 63.9427 109.461 62.9554 109.996Z" fill="#603A26"/>
<path d="M43.0994 52.6951C44.0219 53.2309 45.0335 53.717 46.0492 54.0487C47.2755 54.4503 48.4884 54.4221 49.7472 54.1897C51.7961 53.811 54.0408 53.2752 55.594 51.8048C56.249 51.1857 56.7663 50.4055 56.9905 49.5286C57.1513 48.8988 57.1499 48.1857 56.5286 47.8178C56.141 47.5882 55.6575 47.6137 55.2509 47.427C55.0443 47.3317 55.1159 47.1437 55.3171 47.1034C55.9127 46.9825 56.6853 47.1289 57.2282 47.4982C58.9422 46.5877 59.7526 44.9306 59.7228 42.9888C59.6904 40.9826 59.1218 38.9105 57.7442 37.4051C56.3098 35.838 54.2177 34.8913 52.0716 35.1357C49.5297 35.4244 47.4173 37.0117 45.4211 38.4741C45.2834 38.5748 44.9417 38.5842 44.8323 38.4257C43.5208 36.5135 41.2855 35.2243 39.0462 34.7019C37.909 34.4361 36.5584 34.2642 35.4806 34.8282C34.4703 35.3559 34.026 36.4839 34.003 37.569C33.976 38.791 34.4784 39.9351 35.0362 40.9973C35.5873 42.0461 36.1788 43.0801 36.7907 44.094C37.8577 45.8639 39.08 47.568 40.6737 48.8961C40.7588 48.1669 40.9398 47.4378 41.1181 46.7596C41.2018 46.44 41.9946 46.5192 41.8987 46.8993C41.688 47.7319 41.4922 48.6464 41.4814 49.5219C41.5975 49.6347 41.5759 49.7448 41.4854 49.8308C41.53 50.9695 41.9352 52.0197 43.0994 52.6951ZM49.8552 37.0869C51.168 35.9804 53.2925 35.8864 54.5837 37.0735C56.0654 38.4351 55.8857 40.5367 54.5783 41.9373C53.9044 42.6585 52.99 43.154 51.9797 43.1003C51.5556 43.0775 51.1451 42.9485 50.7939 42.7108C50.6305 42.6007 50.4657 42.4624 50.3468 42.3053C50.2658 42.1979 50.2442 42.1334 50.2307 42.0676C50.101 42.0649 49.9768 42.0354 49.9038 41.9682C48.4951 40.6885 48.3533 38.3532 49.8552 37.0869ZM47.8712 48.9149C48.2574 48.696 49.2636 49.0036 48.6856 49.4413C48.2912 49.7394 48.1602 50.2377 48.1642 50.7117C48.1669 51.1387 48.3493 51.5805 48.2804 51.9968C48.2493 52.1835 48.0049 52.2587 47.8374 52.2144C46.1248 51.7618 46.638 49.6159 47.8712 48.9149ZM44.369 48.4087C44.997 48.6746 45.4792 49.119 45.8115 49.7113C46.1005 50.2256 46.3558 51.1266 45.6967 51.465C45.4603 51.5859 45.1686 51.5913 44.9646 51.4046C44.6243 51.0931 44.785 50.5264 44.6783 50.1128C44.5581 49.6468 44.2515 49.2372 43.8085 49.0291C43.148 48.7175 43.9003 48.2099 44.369 48.4087ZM39.2556 42.5739C37.6524 41.5506 37.1 39.4705 37.882 37.8094C37.8658 37.5408 37.886 37.3675 38.1791 37.1285C38.4992 36.868 38.949 36.7337 39.3501 36.6666C40.2361 36.5175 41.1491 36.7082 41.9433 37.107C43.5667 37.9222 44.6769 39.7888 43.8166 41.5573C43.0008 43.2386 40.7453 43.5233 39.2556 42.5739Z" fill="#A88273"/>
<path d="M41.5422 37.9897C40.6332 37.4297 39.3623 37.2068 38.5263 38.0004C38.0711 39.2574 38.3926 40.6325 39.3407 41.6329C40.3388 42.6857 42.1473 42.7811 42.7659 41.2864C43.2859 40.0295 42.6578 38.6772 41.5422 37.9897Z" fill="#0F0602"/>
<path d="M41.8949 46.8957C41.9908 46.5157 41.1994 46.4364 41.1143 46.756C40.936 47.4342 40.755 48.1634 40.6699 48.8926C40.909 49.0913 41.1561 49.2833 41.4114 49.4633C41.4371 49.4807 41.4573 49.4995 41.4762 49.517C41.4884 48.6428 41.6842 47.7283 41.8949 46.8957Z" fill="black"/>
<path d="M43.8195 53.7455C44.3543 54.0007 44.9013 54.241 45.4632 54.4357C45.4402 54.4049 45.4389 54.3646 45.474 54.3162C45.4834 54.3041 45.4929 54.2907 45.501 54.2786C45.5564 54.2034 45.6698 54.2007 45.759 54.2169C45.9008 54.1766 46.0912 54.2303 46.156 54.3444C46.2249 54.4666 46.2979 54.5835 46.3708 54.6989C46.5545 54.7419 46.7382 54.7795 46.9259 54.8077C48.9667 55.1139 51.2276 54.5499 53.1536 53.8932C54.6069 53.3977 56.0142 52.596 56.9529 51.3794C56.9286 51.237 56.9097 51.0933 56.9029 50.9483C56.8975 50.9443 56.8908 50.9416 56.8854 50.9376C56.4262 50.6475 57.1771 50.3642 57.5012 50.5132C57.8916 49.737 58.1941 48.6345 57.6323 47.8839C57.5202 47.9403 57.4067 47.994 57.2892 48.045C56.988 48.1753 56.5031 47.8409 56.9286 47.6475C57.0299 47.6019 57.1285 47.5508 57.2244 47.4998C56.6814 47.1305 55.9089 46.9841 55.3132 47.105C55.1134 47.1453 55.0418 47.3346 55.2471 47.4286C55.6536 47.6153 56.1358 47.5898 56.5247 47.8194C57.146 48.1874 57.146 48.9004 56.9867 49.5302C56.7638 50.4071 56.2452 51.1873 55.5901 51.8064C54.0369 53.2768 51.7922 53.8127 49.7433 54.1913C48.4859 54.4237 47.273 54.4519 46.0453 54.0503C45.0296 53.7187 44.018 53.2312 43.0955 52.6967C41.9313 52.0213 41.5261 50.9711 41.4788 49.8283C41.4667 49.8404 41.4532 49.8512 41.4383 49.8619C41.3708 50.5038 41.2546 51.1336 41.1074 51.7581C41.206 51.9313 41.3195 52.1005 41.4532 52.2616C42.0515 52.9814 42.9969 53.352 43.8195 53.7455Z" fill="black"/>
<path d="M41.461 49.6873C41.4556 49.745 41.4475 49.8028 41.4421 49.8605C41.457 49.8498 41.4705 49.839 41.4826 49.827C41.5731 49.7424 41.5947 49.6322 41.4786 49.5181C41.4597 49.5006 41.4394 49.4818 41.4137 49.4644C41.1571 49.2831 40.9113 49.0924 40.6723 48.8937C39.0785 47.5656 37.8562 45.8615 36.7892 44.0915C36.1774 43.0763 35.5858 42.0437 35.0348 40.9949C34.477 39.9327 33.9759 38.7885 34.0015 37.5665C34.0259 36.4828 34.4689 35.3548 35.4791 34.8257C36.5569 34.2617 37.9062 34.4336 39.0448 34.6995C41.2841 35.2232 43.5194 36.5124 44.8308 38.4233C44.9402 38.5817 45.2806 38.5737 45.4197 38.4716C47.4159 37.0092 49.5283 35.422 52.0701 35.1332C54.2163 34.8888 56.3097 35.8356 57.7427 37.4027C59.1204 38.9081 59.689 40.9801 59.7214 42.9864C59.7524 44.9282 58.9407 46.5853 57.2268 47.4957C57.1309 47.5468 57.0337 47.5964 56.931 47.6434C56.5056 47.8368 56.9891 48.1725 57.2916 48.0409C57.4091 47.9899 57.5226 47.9362 57.6347 47.8798C59.0002 47.1936 59.9929 46.0938 60.398 44.583C60.8343 42.9555 60.7371 41.0446 60.1536 39.4627C58.8421 35.904 54.8348 33.8508 51.1544 34.6471C48.9191 35.1305 46.9405 36.4184 45.2022 37.8633C43.9502 36.4734 42.5375 35.3239 40.7695 34.6122C39.0988 33.9394 36.927 33.5057 35.2022 34.2375C34.6958 34.4524 34.2879 34.768 33.9678 35.1453C34.0326 35.5536 34.1001 35.9578 34.1717 36.3552C34.2352 36.7071 33.3951 36.7218 33.3208 36.3552C33.3181 36.3445 33.3168 36.3338 33.3141 36.323C33.0683 37.0629 33.0345 37.8928 33.1993 38.6905C33.4262 39.7943 33.9489 40.7961 34.4864 41.7764C35.0118 42.7326 35.5399 43.6887 36.1099 44.6206C37.2498 46.4859 38.568 48.2397 40.2995 49.5893C40.2995 49.5866 40.3008 49.5852 40.3008 49.5826C40.3927 49.1649 41.5029 49.2173 41.461 49.6873Z" fill="black"/>
<path d="M52.2201 9.28145C53.2898 9.13374 54.3703 9.08539 55.4468 9.12568C55.2117 8.99811 55.2887 8.67716 55.6737 8.67179C56.3247 8.66239 56.9743 8.63822 57.6226 8.60464C56.511 8.4529 55.3873 8.38441 54.265 8.41396C52.0351 8.47036 49.8565 8.92559 47.728 9.57286C45.436 10.2685 43.1021 11.0728 40.9519 12.1324C40.5373 12.3365 40.1388 12.5594 39.7539 12.7998C39.92 12.7582 40.0875 12.7246 40.255 12.7004C40.409 12.6789 40.9533 12.824 40.6885 13.0657C40.6048 13.1422 40.5143 13.212 40.4198 13.2765C42.0284 12.3043 43.8328 11.6839 45.6021 11.0608C47.7577 10.3007 49.9484 9.59568 52.2201 9.28145Z" fill="black"/>
<path d="M70.8391 16.7505C70.9998 16.6001 71.1646 16.4537 71.3307 16.31C71.0079 15.8762 70.6568 15.4613 70.2894 15.0665C68.9401 13.6148 67.3613 12.366 65.646 11.3669C63.8456 10.3181 61.8886 9.52982 59.8599 9.03027C58.6673 9.11085 57.4734 9.16322 56.2754 9.17127C58.7079 9.36599 61.1066 10.0146 63.3135 11.05C65.2246 11.947 67.0034 13.1529 68.5269 14.6086C70.1679 16.1757 71.7467 18.1068 71.9142 20.4514C71.9304 20.6797 72.1816 20.7979 72.4423 20.8113C72.6273 20.6488 72.8178 20.4957 73.0163 20.3561C72.8975 19.0132 72.3572 17.7992 71.6117 16.7048C71.4901 16.7867 71.3686 16.8686 71.247 16.9519C71.116 17.0472 70.6406 16.9371 70.8391 16.7505Z" fill="black"/>
<path d="M34.1722 36.3593C34.1006 35.9618 34.0331 35.5576 33.9683 35.1493C32.7919 27.7071 32.8945 18.5917 39.649 13.7775C39.8084 13.6633 39.9704 13.5559 40.1352 13.4512C39.6679 13.713 39.1371 13.8903 38.6522 14.089C38.2633 14.2488 37.8743 14.4046 37.4853 14.5617C35.6876 16.2846 34.3573 18.4614 33.5226 20.8692C31.7803 25.8942 32.2868 31.2174 33.3159 36.3284C33.3186 36.3391 33.32 36.3499 33.3227 36.3606C33.3956 36.7259 34.2357 36.7111 34.1722 36.3593Z" fill="black"/>
<path d="M69.324 25.3368C69.1308 25.7276 70.0466 25.839 70.2235 25.4966C71.3823 23.2527 72.8896 20.4165 75.6949 20.0499C78.4582 19.6887 80.8947 21.7486 81.8672 24.1712C82.9963 26.9818 82.5452 30.1 81.5255 32.8676C81.0041 34.283 80.345 35.6487 79.6549 36.9889C79.0241 38.2109 78.3367 39.4195 77.4101 40.4482C76.4525 41.5104 75.2289 42.3725 73.7675 42.5149C72.3115 42.6572 71.2743 42.0019 70.2451 41.0686C70.0195 40.8631 69.0606 40.8309 69.2672 41.3345C69.6549 42.2812 70.7327 42.8304 71.7591 43.0386C71.855 42.9029 71.959 42.7727 72.0779 42.6518C72.2562 42.4705 72.7829 42.4598 72.8194 42.7821C72.8329 42.9016 72.8315 43.0211 72.818 43.1406C73.9917 43.1514 75.1627 42.911 76.1973 42.3403C79.016 40.7879 80.549 37.3824 81.8132 34.5973C83.2381 31.4536 84.1781 27.8802 83.0611 24.4908C82.1292 21.6614 79.6454 19.5047 76.5998 19.3355C75.1789 19.2563 74.0066 19.6618 73.0193 20.3574C72.8207 20.4971 72.6303 20.6502 72.4453 20.8127C71.1041 21.9917 70.1303 23.7039 69.324 25.3368Z" fill="black"/>
<path d="M70.8226 32.1129C71.5749 33.104 72.13 33.9876 72.1867 35.2606C72.1935 35.4272 72.1948 35.5937 72.1935 35.7602C72.3596 35.4943 72.5514 35.2418 72.7769 35.0109C72.9376 34.8443 73.1132 34.6913 73.2942 34.5435C73.2645 34.2387 73.2091 33.9379 73.1132 33.6438C72.8404 32.8072 72.2083 32.1398 71.7086 31.4348C70.6646 29.963 70.5308 27.8681 71.7059 26.4111C71.9814 26.0687 72.3785 25.6859 72.8539 25.7329C73.2726 25.7732 73.6697 26.1882 73.9236 26.4823C74.5651 27.2222 74.9703 28.1474 75.2242 29.0821C75.3539 29.5561 76.5371 29.4406 76.3885 28.8753C75.9306 27.1403 74.6354 24.703 72.4838 24.9326C72.3893 25.1555 72.3596 25.3677 72.4406 25.5436C72.5662 25.8162 71.9652 25.8632 71.845 25.6497C71.7572 25.4912 71.7342 25.3099 71.7586 25.1152C70.181 25.7611 69.4233 27.856 69.6178 29.4487C69.7421 30.4693 70.2094 31.3045 70.8226 32.1129Z" fill="black"/>
<path d="M72.9538 37.2185C72.7918 37.4333 72.6256 37.6871 72.3785 37.7919C72.2961 37.8751 72.1867 37.9127 72.0705 37.9208C72.0314 38.9494 72.1178 39.9539 72.7337 40.8805C72.9147 41.1531 73.7804 40.9866 73.5738 40.6522C72.7431 39.3093 73.1024 37.714 73.2591 36.2261C73.1294 36.4114 73.0133 36.6101 72.9133 36.8223C73.0389 36.9123 73.0821 37.0479 72.9538 37.2185Z" fill="black"/>
<path d="M71.8457 25.6471C71.9646 25.8606 72.5656 25.8136 72.4413 25.541C72.3603 25.3651 72.39 25.1529 72.4846 24.93C72.7263 24.3593 73.3881 23.716 73.688 23.4367C74.4713 22.7102 75.3141 22.5974 76.1083 23.3938C76.7066 23.9954 77.1104 24.8253 77.4157 25.6055C77.729 26.4058 77.7844 27.3351 78.2423 28.0656C78.3328 28.2093 78.6704 28.2576 78.7447 28.0656C79.1701 26.9645 78.4286 25.447 77.9006 24.4842C77.3954 23.563 76.7066 22.5947 75.6383 22.2966C74.7063 22.0375 73.7569 22.3557 73.0761 23.0178C72.6547 23.4287 71.8538 24.3606 71.7593 25.1113C71.735 25.306 71.7566 25.4886 71.8457 25.6471Z" fill="black"/>
<path d="M40.1339 13.451C40.2312 13.396 40.3271 13.3382 40.4176 13.2738C40.5108 13.208 40.6013 13.1395 40.6864 13.0629C40.9511 12.8212 40.4068 12.6775 40.2528 12.6977C40.0853 12.7205 39.9178 12.7554 39.7517 12.797C38.755 13.0455 37.7812 13.5826 36.8492 13.9613C35.7809 14.3964 34.7085 14.8248 33.6388 15.2585C31.5197 16.1153 29.41 16.9962 27.3436 17.9738C22.9986 20.0271 18.4889 23.1775 13.4714 22.9841C12.2329 22.9357 10.685 22.7142 9.74096 21.8306C9.35468 21.4693 9.08456 20.9926 9.10752 20.4555C9.12778 19.9492 9.41276 19.173 10.0178 19.1274C10.4554 19.0951 10.5527 18.7124 10.2812 18.5835C9.83145 18.8252 9.41006 19.1408 9.02918 19.5571C8.90358 19.6954 8.45652 19.6121 8.61454 19.4C8.78472 19.1703 8.97111 18.9662 9.16965 18.7782C8.69963 19.0307 8.35928 19.4698 8.22691 20.0513C8.00541 21.0181 8.50109 21.8762 9.26689 22.4496C11.2253 23.916 14.2736 23.8194 16.5494 23.3708C19.3344 22.8203 21.9168 21.5727 24.4262 20.2943C26.983 18.9917 29.5654 17.7751 32.2193 16.682C33.6186 16.1059 35.0273 15.5499 36.4333 14.9873C36.7844 14.8463 37.1342 14.7039 37.4854 14.5616C37.8744 14.4045 38.2647 14.2487 38.6523 14.0889C39.1345 13.8901 39.6666 13.7142 40.1339 13.451Z" fill="black"/>
<path d="M118.696 29.0016C118.075 26.3468 117.204 23.7389 115.939 21.315C114.716 18.9744 113.154 16.8231 111.472 14.79C108.247 10.889 104.803 6.84421 100.188 4.55059C95.8102 2.37513 90.8926 1.63386 86.0655 1.23906C80.4631 0.779795 74.8324 0.593136 69.2192 0.295018C63.3481 -0.0165291 57.5296 -0.320019 51.7084 0.723395C48.941 1.22026 46.2168 1.93198 43.5156 2.70548C40.8468 3.46957 38.1739 4.25247 35.551 5.16294C33.0699 6.02372 30.6212 7.0537 28.4238 8.50266C26.5302 9.75154 24.8635 11.3026 23.1374 12.7623C21.3857 14.2435 19.5191 15.683 17.3352 16.4686C15.2404 17.2219 12.9551 17.0313 10.8644 17.7604C10.212 17.9887 9.64746 18.3258 9.16663 18.7783C8.96809 18.9663 8.78171 19.1705 8.61153 19.4001C8.45351 19.6123 8.90056 19.6942 9.02617 19.5572C9.40705 19.1409 9.82844 18.8253 10.2782 18.5836C11.7058 17.8155 13.4265 17.7833 15.0783 17.5845C17.1556 17.3361 19.0451 16.6217 20.809 15.5098C22.6863 14.3254 24.3408 12.8334 26.0426 11.4207C27.8714 9.90328 29.7798 8.54429 31.9408 7.53042C34.2301 6.45612 36.6463 5.68934 39.0667 4.96688C41.6693 4.1907 44.2665 3.38766 46.8935 2.70011C49.5137 2.01524 52.1677 1.43915 54.8581 1.11149C57.666 0.769052 60.5064 0.732795 63.3319 0.79591C69.0004 0.920797 74.669 1.32097 80.3308 1.61641C85.0647 1.86349 89.8526 2.07835 94.4637 3.2668C96.7246 3.84961 98.9356 4.69427 100.941 5.89212C103.124 7.19605 104.965 8.92567 106.662 10.7976C110.058 14.5416 113.456 18.5111 115.454 23.1951C117.45 27.8777 118.356 33.1807 118.629 38.242C118.763 40.7249 118.597 43.3905 117.411 45.6304C116.431 47.4809 114.693 49.0615 112.65 49.6443C111.679 49.9209 110.687 49.9115 109.716 49.647C109.654 49.6295 109.591 49.6255 109.526 49.6295C109.576 49.9317 109.62 50.2352 109.665 50.5373C113.911 51.4545 117.793 48.2665 119.173 44.395C120.038 41.9725 120.1 39.3471 119.913 36.8091C119.726 34.1932 119.295 31.5558 118.696 29.0016Z" fill="black"/>
<path d="M109.528 49.6229C109.281 48.1122 109.031 46.5235 108.511 45.08C108.442 44.8893 107.953 44.896 107.959 45.1283C107.99 46.4927 108.219 47.8798 108.372 49.2361C108.527 50.6113 108.661 51.989 108.792 53.3655C109.051 56.0848 109.234 58.8135 109.325 61.5436C109.512 67.0628 109.423 72.5914 109.263 78.1106C109.182 80.8904 109.419 83.8944 108.387 86.5331C107.493 85.8026 106.898 84.8089 106.482 83.7265C106.25 83.1236 106.103 82.4924 106.053 81.8479C106.004 81.206 106.091 80.5748 106.027 79.9356C105.998 79.6348 105.459 79.6509 105.34 79.8752C104.696 81.0891 105.071 82.7691 105.572 83.9844C105.629 84.124 105.694 84.2597 105.761 84.3926C105.759 84.3443 105.757 84.2946 105.756 84.2462C105.738 83.9038 106.497 83.9092 106.538 84.2462C106.599 84.7431 106.649 85.2373 106.682 85.7314C107.16 86.274 107.718 86.752 108.307 87.1616C108.471 87.2757 108.8 87.2569 108.896 87.0609C110.033 84.7364 110.075 82.0748 110.183 79.5421C110.303 76.7167 110.397 73.8886 110.471 71.0619C110.618 65.4702 110.607 59.8422 110.105 54.2679C109.993 53.0163 109.85 51.7742 109.667 50.5334C109.623 50.2312 109.578 49.9277 109.528 49.6256C109.528 49.6269 109.528 49.6242 109.528 49.6229Z" fill="black"/>
<path d="M105.757 84.2489C105.76 84.2972 105.761 84.3456 105.763 84.3952C105.831 85.9208 105.785 87.5336 105.511 89.0349C105.394 89.6808 105.074 90.7752 104.27 90.8921C103.575 90.9928 103.088 90.0501 102.932 89.5156C102.718 88.7891 102.793 88.0036 102.747 87.2569C102.703 86.5385 102.526 85.8845 102.263 85.2171C101.852 84.1804 101.114 82.3957 102.409 81.6289C102.899 81.3389 102.123 80.9736 101.802 81.1213C100.087 81.9096 100.517 83.7842 101.085 85.1983C101.276 85.671 101.472 86.1423 101.558 86.6473C101.653 87.2005 101.632 87.7659 101.657 88.3245C101.69 88.2708 101.726 88.2171 101.765 88.1647C101.851 88.0506 102.201 88.0371 102.241 88.205C102.348 88.6428 102.181 89.0215 102.078 89.4565C102.031 89.6566 102.002 89.854 101.982 90.0501C102.081 90.2851 102.209 90.5094 102.377 90.7215C103.35 91.957 105.189 91.871 106.075 90.5846C106.604 89.8151 106.661 88.8375 106.711 87.9364C106.751 87.1978 106.735 86.4673 106.684 85.7368C106.649 85.2426 106.599 84.7484 106.539 84.2516C106.499 83.9118 105.741 83.9064 105.757 84.2489Z" fill="black"/>
<path d="M102.24 88.2047C102.199 88.0368 101.851 88.0503 101.763 88.1644C101.724 88.2168 101.689 88.2705 101.655 88.3242C100.965 89.4052 101.325 90.8233 100.917 91.9889C100.697 92.6201 100.062 93.4258 99.2952 93.1183C98.6064 92.8417 98.5983 91.676 98.497 91.0597C98.2553 89.5892 97.9419 88.108 97.8366 86.6201C97.7218 85.0033 97.9338 83.3422 98.3093 81.771C98.3876 81.4433 97.7258 81.3762 97.6353 81.6501C96.9776 83.6148 96.6886 85.5592 96.9303 87.6259C96.9951 88.1752 97.0883 88.7204 97.191 89.2642C97.2085 89.2293 97.2261 89.1944 97.2423 89.1608C97.3679 88.9151 97.8717 88.9379 97.9298 89.2213C98.0149 89.6362 97.7758 90.1049 97.4206 90.4661C97.4273 90.5037 97.4354 90.5413 97.4422 90.5776C97.5854 91.3417 97.6259 92.3099 98.054 92.9827C98.7631 94.0959 100.461 93.9173 101.252 92.9894C101.732 92.428 101.892 91.668 101.929 90.9509C101.945 90.642 101.953 90.3466 101.982 90.0498C102.001 89.8538 102.03 89.6577 102.078 89.4563C102.18 89.0212 102.346 88.6425 102.24 88.2047Z" fill="black"/>
<path d="M97.9302 89.2215C97.8721 88.9395 97.3683 88.9153 97.2427 89.161C97.2252 89.1946 97.209 89.2295 97.1914 89.2644C97.0401 89.5666 96.8821 89.8916 96.6174 90.1091C96.558 90.2568 96.454 90.3079 96.3068 90.2609C96.1123 90.3173 96.038 90.2327 96.0826 90.0071C96.0218 89.8728 96.0218 89.6472 95.9921 89.5075C95.8273 88.73 95.5423 87.9954 95.2411 87.2636C94.9291 86.5035 94.5699 85.7864 94.8062 84.9525C94.917 84.559 95.0872 84.187 95.2695 83.8218C94.9048 84.32 94.5401 84.8195 94.1782 85.3204C94.0472 85.5017 93.9162 85.6843 93.7852 85.8656C93.8851 87.0299 94.6063 88.1861 94.9116 89.3034C95.1493 90.1709 95.1493 91.17 96.3486 91.0545C96.7038 91.0196 97.1077 90.7859 97.421 90.4677C97.7762 90.1051 98.0153 89.6364 97.9302 89.2215Z" fill="black"/>
<path d="M95.2694 83.8203C96.4377 82.225 97.6168 80.639 98.7702 79.0343C100.152 77.1099 101.511 75.1211 102.375 72.9041C103.242 70.6816 103.299 68.5196 102.243 66.3522C101.184 64.1767 99.6616 62.1826 98.3367 60.1642C97.7937 59.337 97.2481 58.5125 96.7024 57.688C96.7727 58.0814 96.8429 58.4682 96.9118 58.8482C96.9361 58.9879 96.5984 59.0026 96.562 58.8791C96.3053 58.0277 96.0487 57.1817 95.807 56.333C94.9966 55.107 94.1916 53.8769 93.4029 52.6387C91.9793 50.4055 90.5774 47.9723 90.3369 45.2879C90.3194 45.0851 89.8777 45.0824 89.871 45.2879C89.7967 47.5949 90.6084 49.7287 91.7605 51.6987C93.0544 53.9104 94.5212 56.0282 95.9164 58.1768C97.3318 60.3549 98.7743 62.5183 100.164 64.7139C100.784 65.6928 101.372 66.7107 101.715 67.8226C102.105 69.0876 102.047 70.3956 101.685 71.6606C101.014 74.0079 99.6549 76.1108 98.2529 78.0862C96.7416 80.2147 95.214 82.3337 93.673 84.442C92.2629 86.3691 90.884 88.3592 89.1335 90.0042C88.3448 90.7455 87.4642 91.3672 86.9523 92.3462C86.458 93.2916 86.3108 94.3659 86.0096 95.3771C85.2937 97.7875 83.4853 99.6541 82.2521 101.797C81.0042 103.966 81.0474 106.303 82.0685 108.484C81.9361 108.15 81.8145 107.812 81.7105 107.466C81.6133 107.142 82.2913 107.075 82.3845 107.345C82.4615 107.565 82.5466 107.783 82.6357 107.997C82.3521 107.155 82.1698 106.28 82.1927 105.391C82.2238 104.161 82.6627 103.035 83.2665 101.977C84.3497 100.08 85.8556 98.4254 86.6741 96.3802C87.0725 95.3851 87.2359 94.3229 87.5925 93.3157C88.0058 92.1448 88.7824 91.4545 89.6968 90.6622C91.2986 89.2737 92.556 87.5736 93.7891 85.8655C93.9201 85.6842 94.0512 85.5016 94.1822 85.3203C94.5401 84.818 94.9047 84.3185 95.2694 83.8203Z" fill="black"/>
<path d="M81.7067 107.465C81.8107 107.81 81.9323 108.148 82.0646 108.482C82.5603 109.731 83.2167 110.912 83.7583 112.143C84.4161 113.639 85.2643 116.373 83.5787 117.528C81.3677 119.043 80.8882 114.704 80.3818 113.576C79.9752 112.672 79.4377 111.828 78.9987 110.94C78.5328 109.999 78.1114 109.028 77.5428 108.141C77.4766 108.039 77.3429 107.971 77.1889 107.937C77.1092 108.406 77.0363 108.877 76.9688 109.349C77.3645 110.136 77.7629 110.921 78.1735 111.699C78.7516 112.793 79.4444 113.795 79.7983 114.993C80.0941 115.996 80.325 117.051 81.1516 117.771C81.8013 118.338 82.6832 118.494 83.4895 118.187C85.4439 117.446 85.5182 114.967 85.0455 113.274C84.5201 111.397 83.3801 109.784 82.6346 107.998C82.5455 107.783 82.459 107.565 82.3834 107.345C82.2875 107.074 81.6095 107.141 81.7067 107.465Z" fill="black"/>
<path d="M77.6015 105.735C77.6731 105.394 76.9896 105.321 76.9005 105.61C76.3076 107.538 75.8659 109.495 75.6269 111.498C75.5094 112.479 75.4499 113.468 75.4162 114.454C75.3851 115.34 75.5134 116.307 75.3162 117.176C75.2325 117.545 75.0785 118.104 74.5747 117.868C74.2195 117.701 73.8738 117.13 73.7076 116.805C73.3268 116.066 73.1755 115.229 73.1255 114.406C73.0107 112.53 73.3956 110.677 72.9445 108.822C72.8784 108.548 72.3746 108.549 72.1868 108.623C71.1725 109.022 70.5148 109.82 69.9759 110.734C69.2695 111.936 68.6968 113.231 68.1444 114.508C67.0896 116.95 66.2103 119.476 65.4878 122.037C64.9151 121.449 64.676 120.147 64.5896 119.549C64.4437 118.539 64.4897 117.509 64.6531 116.505C65.0083 114.313 65.9375 112.268 66.7844 110.232C67.6407 108.171 68.2268 106.109 68.6766 103.929C69.0885 101.932 69.6463 100.022 70.5661 98.1959C72.2287 94.8924 74.649 92.0536 76.8492 89.1033C77.9229 87.6637 78.9575 86.1866 79.8367 84.6208C80.7984 82.9073 81.4656 81.1159 81.9991 79.2305C82.6244 77.0255 83.347 74.9212 84.7057 73.0439C86.005 71.2484 87.6514 69.8854 89.4383 68.5976C89.8111 68.329 89.2114 68.0793 88.9561 68.1934C87.9108 68.6621 86.9451 69.2905 86.0712 70.0345C86.1455 70.209 86.2022 70.3903 86.2373 70.5824C86.3116 70.9946 85.4931 71.0564 85.192 70.8536C83.4807 72.59 82.1963 74.7829 81.4521 77.0389C80.7714 79.1029 80.3095 81.2032 79.3532 83.1705C78.4969 84.931 77.4097 86.5653 76.2549 88.1431C73.9737 91.2626 71.3886 94.2049 69.5639 97.6292C68.578 99.4783 67.9526 101.408 67.5232 103.453C67.3989 104.041 67.2814 104.632 67.1517 105.22C67.1693 105.198 67.1882 105.173 67.2058 105.151C67.3894 104.916 68.081 105.069 67.8459 105.392C67.484 105.888 67.1193 106.385 66.7344 106.865C66.7222 106.907 66.7114 106.949 66.6979 106.989C66.3481 108.14 65.8903 109.253 65.4256 110.361C65.2811 110.706 65.1353 111.053 64.9921 111.4C65.0664 111.375 65.1407 111.351 65.2163 111.329C65.3716 111.286 66.0577 111.388 65.7511 111.674C65.4202 111.982 65.0069 112.217 64.5788 112.429C63.9413 114.07 63.4227 115.749 63.3349 117.527C63.2782 118.68 63.4092 119.854 63.8008 120.944C64.1358 121.873 64.6436 122.822 65.7106 122.991C65.8984 123.02 66.3062 122.989 66.367 122.75C67.0086 120.226 67.8392 117.768 68.867 115.373C69.3722 114.195 69.9246 113.039 70.5067 111.896C70.92 111.085 71.3441 110.158 72.068 109.578C72.4056 111.591 71.8992 113.666 72.3651 115.673C72.6474 116.889 73.8441 119.327 75.4945 118.483C76.1374 118.154 76.34 117.375 76.3967 116.713C76.4953 115.579 76.4453 114.43 76.5318 113.294C76.6331 111.976 76.7776 110.658 76.9667 109.346C77.0342 108.874 77.1085 108.404 77.1868 107.934C77.3124 107.2 77.4489 106.465 77.6015 105.735Z" fill="black"/>
<path d="M65.2158 111.332C65.1401 111.353 65.0659 111.376 64.9916 111.403C63.8462 111.808 62.8833 112.793 61.6623 112.963C61.2787 113.073 61.0235 112.908 60.8978 112.469C60.9586 112.331 61.0194 112.192 61.0815 112.054C61.2274 111.739 61.38 111.422 61.5786 111.134C61.9324 110.623 62.4146 110.287 62.9548 109.994C63.9421 109.46 64.8281 108.913 65.6277 108.117C66.0221 107.723 66.3854 107.302 66.7339 106.867C67.1188 106.386 67.4835 105.889 67.8454 105.393C68.0818 105.07 67.3889 104.917 67.2052 105.152C67.1877 105.175 67.1688 105.199 67.1512 105.222C66.195 106.448 65.2104 107.706 63.9313 108.616C62.6496 109.53 61.2314 109.923 60.444 111.387C60.2063 111.829 59.6836 112.573 60.0645 113.056C60.413 113.498 61.1193 113.605 61.6393 113.569C62.3187 113.523 62.9467 113.228 63.5451 112.924C63.8733 112.758 64.2298 112.601 64.5783 112.429C65.0051 112.218 65.4197 111.983 65.7506 111.674C66.0572 111.391 65.3711 111.289 65.2158 111.332Z" fill="black"/>
<path d="M86.237 70.5839C86.2019 70.3932 86.1451 70.2106 86.0708 70.036C85.5144 68.7281 83.9382 67.878 82.7254 67.3382C80.8345 66.4962 78.8666 65.9054 77.0366 64.9157C75.016 63.8212 73.2197 62.4622 71.5004 60.9515C70.0349 59.665 68.5385 58.8553 66.5368 58.9721C64.5555 59.0876 62.0663 60.1914 60.2429 59.0258C60.0066 58.8741 59.3988 59.0943 59.7486 59.3454C61.1438 60.3485 62.8226 60.2183 64.438 59.9819C65.3537 59.8477 66.2816 59.6717 67.2108 59.7107C67.4188 59.7201 67.6187 59.7456 67.8132 59.7859C67.9509 59.7134 68.0941 59.6476 68.2467 59.5912C68.7437 59.4072 69.5298 59.9269 68.9842 60.2277C69.2772 60.3888 69.5582 60.5809 69.831 60.7957C70.6427 61.4363 71.3761 62.1708 72.1811 62.8208C73.0293 63.5056 73.9207 64.1395 74.8458 64.7169C76.6233 65.8261 78.5141 66.6789 80.4725 67.4161C81.4018 67.7652 82.3431 68.1211 83.1873 68.6515C84.0814 69.2142 84.5514 69.9206 85.1146 70.78C85.1335 70.8082 85.1619 70.8324 85.1943 70.8552C85.4914 71.058 86.3113 70.9962 86.237 70.5839Z" fill="black"/>
<path d="M68.2432 59.5912C68.0905 59.6476 67.9474 59.7147 67.8096 59.7859C66.6494 60.3915 65.9741 61.5169 65.3191 62.6382C64.9085 63.3405 64.4911 64.0522 63.9104 64.631C63.2297 65.3092 62.3626 65.7738 61.486 66.1471C59.5371 66.977 57.4747 67.5773 55.4406 68.1587C53.2391 68.7885 51.0214 69.3525 48.7807 69.8306C47.9758 70.0025 48.4579 70.7491 49.113 70.6081C49.2818 70.5719 49.4506 70.5343 49.6195 70.498C49.9301 70.1516 50.2718 69.8279 50.6554 69.5379C50.9242 69.3337 51.6076 69.5956 51.228 69.9072C51.1092 70.0052 50.9957 70.1072 50.8877 70.212C54.6154 69.3485 58.3283 68.2823 61.8817 66.8924C63.5241 66.2492 64.9855 65.3588 65.9525 63.8575C66.7575 62.6059 67.3585 60.8508 68.8685 60.2801C68.9117 60.264 68.9495 60.2465 68.9833 60.2277C69.5262 59.9269 68.7402 59.4072 68.2432 59.5912Z" fill="black"/>
<path d="M50.6545 69.5376C50.2709 69.829 49.9292 70.1512 49.6186 70.4977C48.7258 71.4928 48.0951 72.6879 47.5062 73.9046C46.5054 75.9753 45.5005 78.0433 44.5078 80.1181C42.5265 84.2581 40.5127 88.3834 38.4652 92.4913C36.5743 96.2863 34.8333 100.343 32.1632 103.679C31.5486 104.447 30.8868 105.218 30.0765 105.79C29.6767 106.07 29.2445 106.309 28.7691 106.434C28.2464 106.571 27.7223 106.501 27.1902 106.51C25.2872 106.54 23.7164 107.85 22.486 109.183C21.7485 109.982 21.1988 110.864 20.6586 111.798C20.4438 112.168 20.1129 112.743 19.62 112.753C19.1621 112.762 18.7272 112.27 18.5435 111.904C17.3982 109.625 20.5438 107.946 21.2258 106.119C21.3393 105.815 20.7693 105.754 20.6073 105.886C20.0643 106.331 19.4714 106.817 18.9257 107.354C18.9946 107.374 19.0635 107.397 19.1324 107.421C19.7982 107.66 19.0459 108.169 18.5921 108.019C18.5165 107.993 18.4395 107.973 18.3612 107.953C17.6562 108.767 17.1159 109.688 17.0133 110.748C16.8498 112.449 18.4841 113.938 20.1899 113.493C21.0151 113.276 21.4595 112.614 21.8674 111.923C22.4171 110.991 23.0438 110.122 23.8028 109.346C24.5443 108.588 25.483 107.722 26.5216 107.405C27.0875 107.232 27.6832 107.327 28.2653 107.294C28.7515 107.266 29.2323 107.166 29.6861 106.986C31.5243 106.254 32.8938 104.48 34.0041 102.925C35.2642 101.161 36.2934 99.2527 37.2753 97.3256C39.5213 92.9156 41.7053 88.4721 43.8622 84.0191C45.0737 81.5187 46.2825 79.0156 47.4414 76.4909C47.9911 75.2944 48.5124 74.0818 49.0959 72.9028C49.5821 71.9225 50.0994 70.9744 50.8827 70.213C50.9908 70.1083 51.1043 70.0062 51.2231 69.9082C51.6067 69.5953 50.9233 69.3334 50.6545 69.5376Z" fill="black"/>
<path d="M19.1325 107.423C19.065 107.399 18.9961 107.377 18.9259 107.356C17.7751 107.015 16.4434 107.184 15.3184 107.51C13.8192 107.946 12.8022 109.085 11.8419 110.254C11.4826 110.69 10.7357 111.878 10.0712 111.849C9.19196 111.81 9.33512 110.338 9.55932 109.84C9.90643 109.069 10.6061 108.441 11.2287 107.886C11.8972 107.29 12.8373 106.828 13.3667 106.103C13.5909 105.797 13.1006 105.611 12.8562 105.673C11.8378 105.931 11.0058 106.61 10.2184 107.276C10.1225 107.357 10.0253 107.44 9.92939 107.523C10.448 107.55 10.7438 108.122 10.0564 108.279C9.66062 108.371 9.26489 108.463 8.86916 108.559C8.64225 108.821 8.43831 109.099 8.27083 109.399C7.47667 110.83 8.16954 112.751 9.97937 112.771C11.9202 112.793 12.8967 110.71 14.0542 109.499C15.0807 108.426 16.823 107.577 18.3613 107.953C18.4383 107.972 18.5153 107.993 18.5923 108.019C19.0461 108.169 19.7984 107.66 19.1325 107.423Z" fill="black"/>
<path d="M9.93078 107.525C9.87001 107.522 9.80653 107.525 9.74035 107.538C8.14797 107.862 6.55289 108.167 4.96321 108.5C4.06774 108.688 2.54965 109.189 1.73523 108.524C0.4805 107.501 2.23901 105.929 3.03182 105.322C4.1839 104.44 5.37244 103.444 6.66229 102.767C8.13716 101.993 9.82003 102.941 11.2868 103.348C12.7212 103.746 14.2136 104.189 15.6993 104.335C18.4356 104.607 19.9713 101.804 21.0234 99.7052C22.3484 97.0624 23.4734 94.3216 24.7944 91.6748C26.1598 88.938 27.6144 86.2442 29.1488 83.5974C32.0283 78.6287 35.2468 73.7904 37.27 68.3893C38.4383 65.2698 39.0272 62.016 39.4999 58.7314C39.7322 57.1159 40.028 55.5595 40.4967 53.9937C40.7182 53.2525 40.9356 52.5098 41.1125 51.7578C41.2598 51.1334 41.3759 50.5022 41.4434 49.8617C41.4488 49.804 41.4583 49.7462 41.4623 49.6885C41.5042 49.2185 40.394 49.1661 40.3035 49.5877C40.3035 49.5904 40.3022 49.5918 40.3022 49.5945C39.7133 52.3326 38.6517 54.9404 38.2317 57.7148C37.7562 60.8545 37.2525 63.9887 36.2544 67.0142C34.3743 72.7067 31.0693 77.772 28.0953 82.938C26.511 85.6909 25.0159 88.4935 23.6099 91.3404C22.2498 94.096 21.1072 96.959 19.7147 99.6971C19.092 100.923 18.3384 102.286 17.2417 103.16C16.5205 103.736 15.7317 103.552 14.8916 103.386C14.0893 103.226 13.2925 103.045 12.501 102.838C11.0207 102.451 9.50129 101.689 7.95888 101.624C6.49481 101.562 5.30761 102.423 4.16364 103.219C2.90891 104.094 1.37326 104.977 0.485902 106.253C-0.227225 107.279 -0.21642 108.592 0.928905 109.296C1.95943 109.928 3.33571 109.809 4.46618 109.575C5.94105 109.27 7.40513 108.912 8.87055 108.563C9.26628 108.469 9.66201 108.375 10.0577 108.283C10.7439 108.122 10.4494 107.552 9.93078 107.525Z" fill="black"/>
<path d="M72.8205 42.7835C72.7854 42.4612 72.2573 42.472 72.079 42.6533C71.9601 42.7741 71.8575 42.9044 71.7602 43.04C71.4766 43.4415 71.2632 43.8914 70.958 44.2822C70.5703 44.779 70.1098 45.2128 69.6073 45.5928C68.5714 46.3757 67.4072 46.9706 66.2821 47.6138C64.9004 48.4034 63.5539 49.2723 62.1317 49.9894C60.7162 50.7038 59.0131 51.3631 57.5247 50.5225C57.5166 50.5185 57.5085 50.5158 57.5004 50.5118C57.1762 50.3627 56.4267 50.646 56.8845 50.9361C56.8899 50.9401 56.8967 50.9428 56.9021 50.9469C56.9021 50.9455 56.9021 50.9428 56.9021 50.9415C56.8845 50.5292 57.7462 50.5292 57.8718 50.8569C57.9475 51.0543 58.0109 51.2544 58.0609 51.4571C60.8688 52.2172 63.9996 49.9437 66.3118 48.617C67.703 47.8193 69.1873 47.1183 70.4704 46.1514C71.3267 45.5055 72.6868 44.3359 72.8178 43.1434C72.8326 43.0226 72.8326 42.903 72.8205 42.7835Z" fill="black"/>
<path d="M56.9022 50.9413C56.9022 50.9426 56.9022 50.9453 56.9022 50.9467C56.9089 51.0917 56.9278 51.2354 56.9522 51.3777C57.0197 51.7806 57.1223 52.174 57.0751 52.5903C56.99 53.3262 56.5173 53.721 55.9392 54.1212C54.8641 54.8652 53.9092 55.7797 52.7355 56.3799C51.578 56.9721 50.2112 57.1642 48.9565 56.7761C47.7815 56.4122 46.9967 55.6776 46.3714 54.6986C46.2985 54.5832 46.2255 54.4663 46.1567 54.3441C46.0918 54.2313 45.9014 54.1776 45.7596 54.2166C45.6704 54.2004 45.557 54.2031 45.5016 54.2783C45.4921 54.2904 45.4827 54.3038 45.4746 54.3159C45.4395 54.3643 45.4408 54.4046 45.4638 54.4354C45.4894 54.4704 45.5394 54.4945 45.5948 54.5053C45.5975 54.508 45.6002 54.5106 45.6043 54.5133C45.6124 54.52 45.6218 54.5268 45.6299 54.5335C46.4524 57.3925 50.1991 58.1753 52.6828 57.234C54.2604 56.6364 55.5016 55.4654 56.859 54.5106C57.4141 54.1199 57.9219 53.6848 58.0907 53.0053C58.2204 52.4829 58.1893 51.9646 58.0637 51.457C58.0137 51.2555 57.9503 51.0541 57.8746 50.8567C57.745 50.529 56.8833 50.529 56.9022 50.9413Z" fill="black"/>
<path d="M55.4456 9.12585C55.5023 9.15674 55.5779 9.17688 55.6725 9.17688C55.8751 9.17823 56.0763 9.17554 56.2789 9.17285C57.4769 9.16345 58.6708 9.11242 59.8634 9.03185C64.0112 8.74985 68.1373 8.14287 72.2959 7.98307C75.0687 7.87698 77.855 7.98307 80.5765 8.54842C82.8766 9.02514 85.0957 9.79863 87.3202 10.5372C87.9847 10.5332 88.6505 10.556 89.3137 10.6097C90.2024 10.6822 91.2667 10.7064 92.0865 11.0811C92.4809 11.261 92.2081 11.5941 91.8718 11.5927C91.1897 11.59 90.5049 11.445 89.8215 11.3403C92.019 12.0103 94.2718 12.5556 96.5733 12.5354C97.1189 12.53 97.4012 11.8801 96.7259 11.8035C94.0895 11.5068 91.5422 10.9132 89.0166 10.1156C86.5611 9.34071 84.1287 8.47725 81.6125 7.91055C76.2221 6.69659 70.69 7.2606 65.2619 7.8743C62.7186 8.16167 60.1754 8.4665 57.6201 8.60213C56.9718 8.63705 56.3221 8.65988 55.6711 8.66928C55.2875 8.67733 55.2105 8.99828 55.4456 9.12585Z" fill="black"/>
<path d="M92.0869 11.0822C91.2671 10.7075 90.2028 10.6834 89.3141 10.6108C88.6509 10.5571 87.9864 10.533 87.3205 10.5383C87.0491 10.5397 86.7776 10.545 86.5048 10.5571C84.6004 10.639 82.7136 10.9452 80.8754 11.4461C77.4516 12.3794 74.0304 13.9721 71.3306 16.3113C71.1644 16.455 70.9997 16.6014 70.8389 16.7518C70.6404 16.9371 71.1145 17.0472 71.2482 16.9559C71.3697 16.8727 71.4913 16.7908 71.6128 16.7088C74.5585 14.7187 77.6528 13.0361 81.1077 12.0786C82.8635 11.5925 84.6814 11.289 86.5034 11.2138C87.3678 11.1775 88.2349 11.1896 89.0966 11.2554C89.337 11.2742 89.5788 11.3065 89.8192 11.3427C90.5026 11.4475 91.1874 11.5925 91.8694 11.5952C92.2084 11.5952 92.4813 11.2621 92.0869 11.0822Z" fill="black"/>
<path d="M100.311 36.2544C101.939 34.9733 103.837 34.2804 105.899 34.1098C106.398 34.0682 106.41 33.6089 105.899 33.578C102.262 33.3591 98.806 35.8179 96.9003 38.7414C94.5205 42.3927 94.1261 46.9356 94.6718 51.1549C94.9014 52.9275 95.3214 54.6343 95.8036 56.3317C96.0454 57.1804 96.302 58.0264 96.5586 58.8778C96.5964 59.0027 96.9341 58.9866 96.9084 58.8469C96.8409 58.4669 96.7706 58.0801 96.6991 57.6866C95.416 50.5533 93.8763 41.3157 100.311 36.2544Z" fill="black"/>
<path d="M72.194 35.7604C71.8793 36.2639 71.6646 36.8226 71.5363 37.4134C71.4998 37.4537 71.4728 37.5021 71.4796 37.5531C71.4823 37.5746 71.4863 37.5974 71.489 37.6189C71.5066 37.7424 71.5944 37.8432 71.7186 37.8781C71.7308 37.8808 71.7429 37.8848 71.7537 37.8875C71.8496 37.9143 71.9604 37.9304 72.0684 37.9224C72.1846 37.9143 72.294 37.8767 72.3764 37.7935C72.6222 37.6874 72.7897 37.4349 72.9517 37.2201C73.08 37.0495 73.0355 36.9139 72.9126 36.8226C73.0125 36.6104 73.1287 36.4117 73.2583 36.2263C74.089 35.0312 75.4652 34.3356 76.7429 33.507C77.1846 33.2196 77.6195 32.9215 78.0638 32.6368C78.1908 32.5563 78.3326 32.4837 78.4379 32.375C78.4488 32.3642 78.4582 32.3548 78.465 32.3454C78.5217 32.328 78.4677 32.4314 78.5365 32.2756C78.7432 31.8043 78.2327 31.6592 77.8329 31.7156C77.5141 31.7599 77.2521 31.9399 76.986 32.1037C76.4296 32.4448 75.8812 32.798 75.3383 33.1606C74.667 33.6077 73.9309 34.0281 73.2948 34.5437C73.1138 34.6914 72.9382 34.8445 72.7775 35.011C72.5533 35.242 72.3615 35.4931 72.194 35.7604ZM77.4466 32.0097C77.4587 31.9224 77.5249 31.9251 77.4466 32.0097V32.0097Z" fill="black"/>
<path d="M43.8151 41.5575C44.6755 39.7876 43.5653 37.921 41.9418 37.1072C41.1476 36.7084 40.2346 36.5177 39.3486 36.6667C38.9475 36.7339 38.4977 36.8682 38.1776 37.1287C37.8846 37.3677 37.8643 37.541 37.8805 37.8095C37.0985 39.4707 37.6509 41.5508 39.2541 42.574C40.7438 43.5235 42.9993 43.2388 43.8151 41.5575ZM42.7657 41.2849C42.1471 42.7795 40.3386 42.6842 39.3405 41.6314C38.3924 40.6309 38.0723 39.2558 38.5261 37.9989C39.3621 37.2052 40.6331 37.4282 41.542 37.9881C42.6576 38.677 43.2857 40.0293 42.7657 41.2849Z" fill="black"/>
<path d="M49.9031 41.9684C49.976 42.0355 50.1003 42.0651 50.23 42.0677C50.2435 42.1335 50.2651 42.1993 50.3461 42.3054C50.465 42.4625 50.6297 42.6009 50.7932 42.711C51.1443 42.9487 51.5549 43.0776 51.979 43.1004C52.9893 43.1541 53.9037 42.6586 54.5776 41.9375C55.8837 40.5369 56.0633 38.4353 54.583 37.0736C53.2905 35.8865 51.1659 35.9805 49.8545 37.087C48.3513 38.3534 48.4931 40.6886 49.9031 41.9684ZM50.2435 37.9357C51.0484 36.7943 52.7475 36.4814 53.8078 37.4496C54.8261 38.3802 54.9612 39.8762 54.2224 41.0055C53.7983 41.6541 53.1365 42.3363 52.3302 42.4424C51.8899 42.5001 51.6103 42.3296 51.2862 42.0704C51.0741 41.8999 50.9012 41.8301 50.6932 41.7199C50.6838 41.7079 50.6743 41.6944 50.6622 41.6823C49.6641 40.7182 49.4263 39.0946 50.2435 37.9357Z" fill="black"/>
<path d="M43.8066 49.029C44.2496 49.2372 44.5562 49.6468 44.6764 50.1127C44.7831 50.525 44.6224 51.093 44.9628 51.4046C45.168 51.5913 45.4584 51.5872 45.6948 51.465C46.3539 51.1266 46.0986 50.2255 45.8096 49.7112C45.476 49.119 44.9952 48.6759 44.3671 48.4086C43.8985 48.2099 43.1462 48.7175 43.8066 49.029Z" fill="black"/>
<path d="M47.8354 52.2145C48.0029 52.2589 48.2474 52.1837 48.2784 51.997C48.3473 51.5794 48.165 51.1389 48.1623 50.7119C48.1582 50.2378 48.2892 49.741 48.6836 49.4415C49.2617 49.0037 48.2555 48.6962 47.8692 48.9151C46.6361 49.6161 46.1228 51.762 47.8354 52.2145Z" fill="black"/>
</svg>
