<svg width="24" height="24" viewBox="0 0 24 24" fill="none" xmlns="http://www.w3.org/2000/svg">
<path d="M17.5633 8.672C16.2883 7.66419 14.5398 7.37825 12.5055 7.85169L12.8805 6.11262V6.10794C13.2227 4.42044 12.1539 2.77044 10.4711 2.39544L8.56797 1.98762C8.31484 1.93137 8.06641 2.09544 8.01016 2.34856L7.60234 4.25169V4.25637C7.32578 5.60637 7.96328 6.9845 9.16797 7.65012C8.11328 7.72981 7.18516 8.072 6.43047 8.67669C5.00547 9.80637 4.22266 11.7798 4.22266 14.2314C4.22734 15.5251 4.48516 16.8095 4.98672 18.0001C5.51641 19.2611 6.28516 20.3017 7.19922 21.0001C8.47422 21.9751 9.98828 22.2657 11.5867 21.8345C11.6945 21.8111 11.807 21.8017 11.9148 21.797H12.0789C12.1914 21.797 12.2992 21.8111 12.407 21.8345C12.8711 21.9611 13.3492 22.0267 13.8273 22.0267C14.8961 22.0267 15.9039 21.6798 16.7945 21.0001C17.7086 20.3017 18.4727 19.2657 19.007 18.0001C19.5086 16.8048 19.7664 15.5251 19.7711 14.2314C19.7711 11.7751 18.9883 9.80169 17.5633 8.672ZM8.83516 6.08919C8.52109 5.60169 8.40859 5.01106 8.52578 4.44387L8.83516 3.00481L10.2742 3.31419C11.4555 3.57669 12.2055 4.7345 11.9664 5.92044L11.657 7.3595L10.218 7.05012C9.64609 6.92356 9.14922 6.58137 8.83516 6.08919ZM16.2273 20.2501C15.1727 21.0564 13.968 21.2767 12.6414 20.9158C12.632 20.9111 12.6227 20.9158 12.6086 20.9158C12.4352 20.8783 12.257 20.8595 12.0789 20.8595H11.9148C11.7367 20.8595 11.5586 20.8783 11.3852 20.9158C11.3758 20.9158 11.3664 20.9157 11.3523 20.9204C10.0258 21.2814 8.81641 21.0564 7.76641 20.2548C6.20547 19.0642 5.16016 16.6407 5.16016 14.2314C5.16016 12.0704 5.82109 10.3595 7.01641 9.41262C8.07578 8.57356 9.51016 8.35794 11.282 8.77044C11.5164 8.83606 11.7555 8.86887 11.9992 8.86887C12.243 8.86887 12.482 8.83606 12.7164 8.77044C14.4883 8.35794 15.9227 8.57356 16.982 9.41262C18.1773 10.3595 18.8383 12.0704 18.8383 14.2314C18.8336 16.6407 17.7883 19.0595 16.2273 20.2501Z" fill="#583933"/>
<path d="M10.5664 10.1201C9.34766 10.1201 8.41953 10.4717 7.80547 11.1701C7.22891 11.8217 6.93359 12.7826 6.93359 14.0248C6.93359 14.2826 7.14453 14.4936 7.40234 14.4936C7.66016 14.4936 7.87109 14.2826 7.87109 14.0248C7.87109 11.9717 8.70078 11.0576 10.5664 11.0576C10.8242 11.0576 11.0352 10.8467 11.0352 10.5889C11.0352 10.3311 10.8242 10.1201 10.5664 10.1201Z" fill="#583933"/>
</svg>
