<svg width="18" height="14" viewBox="0 0 18 14" fill="none" xmlns="http://www.w3.org/2000/svg">
<path d="M17.3635 7.70734C17.5509 7.51981 17.6562 7.26551 17.6562 7.00034C17.6562 6.73518 17.5509 6.48087 17.3635 6.29334L11.7065 0.636343C11.6142 0.540833 11.5039 0.46465 11.3819 0.412241C11.2599 0.359832 11.1286 0.332246 10.9959 0.331092C10.8631 0.329938 10.7314 0.35524 10.6085 0.405521C10.4856 0.455802 10.374 0.530055 10.2801 0.623948C10.1862 0.717841 10.1119 0.829492 10.0616 0.952388C10.0114 1.07528 9.98606 1.20696 9.98721 1.33974C9.98837 1.47252 10.016 1.60374 10.0684 1.72575C10.1208 1.84775 10.197 1.9581 10.2925 2.05034L14.2425 6.00034L0.999465 6.00034C0.734248 6.00034 0.479894 6.1057 0.292357 6.29323C0.104821 6.48077 -0.000535192 6.73512 -0.000535204 7.00034C-0.000535216 7.26556 0.104821 7.51991 0.292357 7.70745C0.479893 7.89498 0.734248 8.00034 0.999465 8.00034L14.2425 8.00034L10.2925 11.9503C10.1103 12.1389 10.0095 12.3915 10.0118 12.6537C10.0141 12.9159 10.1192 13.1668 10.3046 13.3522C10.4901 13.5376 10.7409 13.6427 11.0031 13.645C11.2653 13.6473 11.5179 13.5465 11.7065 13.3643L17.3635 7.70734Z" fill="white"/>
</svg>
