<svg width="25" height="24" viewBox="0 0 25 24" fill="none" xmlns="http://www.w3.org/2000/svg">
<mask id="mask0_575_266" style="mask-type:alpha" maskUnits="userSpaceOnUse" x="0" y="0" width="25" height="24">
<rect x="0.785156" width="23.3549" height="24" fill="#D9D9D9"/>
</mask>
<g mask="url(#mask0_575_266)">
<path d="M12.4619 21C11.9267 21 11.4685 20.8042 11.0873 20.4125C10.7062 20.0208 10.5156 19.55 10.5156 19C10.5156 18.45 10.7062 17.9792 11.0873 17.5875C11.4685 17.1958 11.9267 17 12.4619 17C12.9971 17 13.4553 17.1958 13.8364 17.5875C14.2175 17.9792 14.4081 18.45 14.4081 19C14.4081 19.55 14.2175 20.0208 13.8364 20.4125C13.4553 20.8042 12.9971 21 12.4619 21ZM10.5156 15V3H14.4081V15H10.5156Z" fill="#583933"/>
</g>
</svg>
