<svg width="32" height="32" viewBox="0 0 32 32" fill="none" xmlns="http://www.w3.org/2000/svg">
<path d="M0 0H3.55556V3.55556H0V0ZM7.11111 0H10.6667V3.55556H7.11111V0ZM14.2222 0H17.7778V3.55556H14.2222V0ZM21.3333 0H24.8889V3.55556H21.3333V0ZM28.4444 0H32V3.55556H28.4444V0ZM28.4444 7.11111H32V10.6667H28.4444V7.11111ZM0 28.4444H3.55556V32H0V28.4444ZM0 21.3333H3.55556V24.8889H0V21.3333ZM0 14.2222H3.55556V17.7778H0V14.2222ZM0 7.11111H3.55556V10.6667H0V7.11111ZM13.6302 14.2222L15.472 11.4578C15.6344 11.2144 15.8544 11.0148 16.1124 10.8768C16.3704 10.7388 16.6585 10.6666 16.9511 10.6667H22.16C22.4526 10.6666 22.7407 10.7388 22.9987 10.8768C23.2567 11.0148 23.4767 11.2144 23.6391 11.4578L25.4809 14.2222H30.2222C30.6937 14.2222 31.1459 14.4095 31.4793 14.7429C31.8127 15.0763 32 15.5285 32 16V30.2222C32 30.6937 31.8127 31.1459 31.4793 31.4793C31.1459 31.8127 30.6937 32 30.2222 32H8.88889C8.41739 32 7.96521 31.8127 7.63181 31.4793C7.29841 31.1459 7.11111 30.6937 7.11111 30.2222V16C7.11111 15.5285 7.29841 15.0763 7.63181 14.7429C7.96521 14.4095 8.41739 14.2222 8.88889 14.2222H13.6302ZM19.5556 26.6667C20.4985 26.6667 21.4029 26.2921 22.0697 25.6253C22.7365 24.9585 23.1111 24.0541 23.1111 23.1111C23.1111 22.1681 22.7365 21.2638 22.0697 20.597C21.4029 19.9302 20.4985 19.5556 19.5556 19.5556C18.6126 19.5556 17.7082 19.9302 17.0414 20.597C16.3746 21.2638 16 22.1681 16 23.1111C16 24.0541 16.3746 24.9585 17.0414 25.6253C17.7082 26.2921 18.6126 26.6667 19.5556 26.6667Z" fill="black"/>
</svg>
