<svg width="25" height="24" viewBox="0 0 25 24" fill="none" xmlns="http://www.w3.org/2000/svg">
<mask id="mask0_575_290" style="mask-type:alpha" maskUnits="userSpaceOnUse" x="0" y="0" width="25" height="24">
<rect x="0.785156" width="23.3549" height="24" fill="#D9D9D9"/>
</mask>
<g mask="url(#mask0_575_290)">
<path d="M7.59617 23L10.3209 8.9L8.56929 9.6V13H6.62305V8.3L11.5373 6.15C11.7644 6.05 12.0036 5.99167 12.255 5.975C12.5064 5.95833 12.7456 5.99167 12.9727 6.075C13.1997 6.15833 13.4146 6.275 13.6174 6.425C13.8201 6.575 13.9863 6.76667 14.1161 7L15.0892 8.6C15.5109 9.3 16.0826 9.875 16.8043 10.325C17.5261 10.775 18.3492 11 19.2736 11V13C18.1383 13 17.1247 12.7583 16.2326 12.275C15.3406 11.7917 14.5783 11.175 13.9458 10.425L13.3376 13.5L15.3811 15.5V23H13.4349V16.5L11.3913 14.9L9.63972 23H7.59617ZM13.9215 5.5C13.3862 5.5 12.9281 5.30417 12.5469 4.9125C12.1658 4.52083 11.9752 4.05 11.9752 3.5C11.9752 2.95 12.1658 2.47917 12.5469 2.0875C12.9281 1.69583 13.3862 1.5 13.9215 1.5C14.4567 1.5 14.9149 1.69583 15.296 2.0875C15.6771 2.47917 15.8677 2.95 15.8677 3.5C15.8677 4.05 15.6771 4.52083 15.296 4.9125C14.9149 5.30417 14.4567 5.5 13.9215 5.5Z" fill="#583933"/>
</g>
</svg>
