<svg width="95" height="73" viewBox="0 0 95 73" fill="none" xmlns="http://www.w3.org/2000/svg">
<path d="M39.4844 44.75C39.4844 42.1562 39.2031 39.9531 38.6406 38.1406C38.1094 36.2969 37.2812 34.7969 36.1562 33.6406C35.0312 32.4531 33.625 31.5938 31.9375 31.0625C30.25 30.5312 28.2812 30.2656 26.0312 30.2656C24.0938 30.2344 22.2812 30.6406 20.5938 31.4844C18.9375 32.3281 17.4844 33.4844 16.2344 34.9531C15.0156 36.3906 14.0469 38.0781 13.3281 40.0156C12.6406 41.9219 12.2969 43.9531 12.2969 46.1094V51.2656C12.2969 53.2656 12.625 55.2031 13.2812 57.0781C13.9375 58.9219 14.8594 60.5625 16.0469 62C17.2344 63.4375 18.6719 64.5938 20.3594 65.4688C22.0469 66.3125 23.9062 66.7344 25.9375 66.7344C27.7812 66.7344 29.5156 66.3594 31.1406 65.6094C32.7969 64.8594 34.2344 63.8438 35.4531 62.5625C36.7031 61.25 37.6875 59.7188 38.4062 57.9688C39.125 56.1875 39.4844 54.2812 39.4844 52.25V44.75ZM46 52.25C46 55.25 45.4375 57.9844 44.3125 60.4531C43.2188 62.9219 41.7344 65.0312 39.8594 66.7812C38.0156 68.5312 35.8906 69.8906 33.4844 70.8594C31.0781 71.8281 28.5625 72.3125 25.9375 72.3125C23.1875 72.3125 20.5938 71.7188 18.1562 70.5312C15.7188 69.3125 13.5781 67.7188 11.7344 65.75C9.92188 63.7812 8.46875 61.5625 7.375 59.0938C6.3125 56.5938 5.78125 54.0781 5.78125 51.5469V45.125C5.78125 42.3438 6.25 39.7031 7.1875 37.2031C8.15625 34.7031 9.51562 32.5156 11.2656 30.6406C13.0469 28.7656 15.1719 27.2812 17.6406 26.1875C20.1094 25.0625 22.875 24.5 25.9375 24.5C27 24.5 28.2031 24.6094 29.5469 24.8281C30.9219 25.0156 32.2656 25.3906 33.5781 25.9531C34.8906 26.5156 36.1094 27.3125 37.2344 28.3438C38.3906 29.375 39.2969 30.7188 39.9531 32.375V17.0938C39.9531 14.9688 39.8906 13.1875 39.7656 11.75C39.6406 10.2812 39.3125 9.10938 38.7812 8.23438C38.2812 7.32812 37.4844 6.6875 36.3906 6.3125C35.2969 5.9375 33.7969 5.75 31.8906 5.75C29.4219 5.75 27.6094 6.45312 26.4531 7.85938C25.3281 9.23438 24.7656 11.0938 24.7656 13.4375V15.9219H19.4219V13.4375C19.4219 12.0938 19.1875 10.9375 18.7188 9.96875C18.25 9 17.625 8.20312 16.8438 7.57812C16.0625 6.95312 15.1719 6.5 14.1719 6.21875C13.2031 5.90625 12.2031 5.75 11.1719 5.75C10.0781 5.75 9.17188 5.9375 8.45312 6.3125C7.73438 6.65625 7.15625 7.10938 6.71875 7.67188C6.3125 8.20312 6.01562 8.79688 5.82812 9.45312C5.67188 10.0781 5.59375 10.6719 5.59375 11.2344V18.8281H0.296875V11.2344C0.296875 9.76562 0.5625 8.39062 1.09375 7.10938C1.625 5.82812 2.34375 4.71875 3.25 3.78125C4.1875 2.8125 5.28125 2.0625 6.53125 1.53125C7.78125 0.96875 9.125 0.6875 10.5625 0.6875C12.0625 0.6875 13.375 0.828125 14.5 1.10938C15.625 1.35938 16.625 1.78125 17.5 2.375C18.4062 2.9375 19.2188 3.67188 19.9375 4.57812C20.6562 5.45312 21.3438 6.51562 22 7.76562C23.375 5.39062 24.875 3.625 26.5 2.46875C28.1562 1.28125 30.2031 0.6875 32.6406 0.6875C35.1094 0.6875 37.1875 1.01562 38.875 1.67188C40.5938 2.29688 41.9688 3.28125 43 4.625C44.0625 5.9375 44.8281 7.60938 45.2969 9.64062C45.7656 11.6719 46 14.0625 46 16.8125V52.25ZM94.3281 43.9531C94.2969 47.0469 94.0469 50.1406 93.5781 53.2344C93.1094 56.3281 92.3281 59.1875 91.2344 61.8125C90.1719 64.4375 88.7344 66.6875 86.9219 68.5625C85.1094 70.4375 82.8438 71.6875 80.125 72.3125L79.5625 66.7344C80.6875 66.7344 81.75 66.2344 82.75 65.2344C83.75 64.2344 84.625 62.7812 85.375 60.875C86.125 58.9375 86.7188 56.5781 87.1562 53.7969C87.5938 51.0156 87.8125 47.8438 87.8125 44.2812V26.8906C87.8125 23.6719 87.625 20.7813 87.25 18.2188C86.875 15.6562 86.2188 13.5 85.2812 11.75C84.375 9.96875 83.125 8.60938 81.5312 7.67188C79.9688 6.73438 77.9688 6.26562 75.5312 6.26562C72.8438 6.26562 70.6406 6.75 68.9219 7.71875C67.2344 8.65625 65.9062 10.0312 64.9375 11.8438C64 13.625 63.3438 15.8125 62.9688 18.4062C62.625 21 62.4531 23.9219 62.4531 27.1719V44.2812C62.4531 47.7812 62.6094 50.9219 62.9219 53.7031C63.2344 56.4844 63.6719 58.8438 64.2344 60.7812C64.7969 62.6875 65.4844 64.1562 66.2969 65.1875C67.1406 66.2188 68.0781 66.7344 69.1094 66.7344L69.0156 72.3125C67.1719 71.9688 65.5625 71.3125 64.1875 70.3438C62.8438 69.3438 61.6875 68.1406 60.7188 66.7344C59.75 65.2969 58.9531 63.6875 58.3281 61.9062C57.7031 60.0938 57.2188 58.2188 56.875 56.2812C56.5312 54.3125 56.2812 52.3125 56.125 50.2812C56 48.2188 55.9375 46.2188 55.9375 44.2812V27.3594C55.9375 25.2969 56.0469 23.2031 56.2656 21.0781C56.4844 18.9531 56.8594 16.9062 57.3906 14.9375C57.9219 12.9375 58.6406 11.0781 59.5469 9.35938C60.4844 7.60938 61.6562 6.09375 63.0625 4.8125C64.5 3.5 66.2031 2.46875 68.1719 1.71875C70.1719 0.96875 72.5 0.59375 75.1562 0.59375C77.8438 0.59375 80.1875 0.921875 82.1875 1.57812C84.2188 2.23438 85.9375 3.14062 87.3438 4.29688C88.7812 5.45312 89.9531 6.84375 90.8594 8.46875C91.7656 10.0938 92.4844 11.8906 93.0156 13.8594C93.5469 15.7969 93.9062 17.875 94.0938 20.0938C94.3125 22.2813 94.4219 24.5469 94.4219 26.8906L94.3281 43.9531Z" fill="#583933"/>
<path d="M38.6406 38.1406L37.1993 38.5559L37.2035 38.5706L37.208 38.5852L38.6406 38.1406ZM36.1562 33.6406L35.0673 34.6722L35.0742 34.6795L35.0812 34.6867L36.1562 33.6406ZM26.0312 30.2656L26.0071 31.7654L26.0192 31.7656H26.0312V30.2656ZM20.5938 31.4844L19.9229 30.1427L19.9129 30.1478L20.5938 31.4844ZM16.2344 34.9531L15.0921 33.9809L15.0902 33.9831L16.2344 34.9531ZM13.3281 40.0156L11.9217 39.4939L11.9171 39.5067L13.3281 40.0156ZM13.2812 57.0781L11.8654 57.5737L11.8681 57.5811L13.2812 57.0781ZM20.3594 65.4688L19.6689 66.8004L19.6787 66.8055L19.6886 66.8104L20.3594 65.4688ZM31.1406 65.6094L30.5218 64.2429L30.512 64.2474L31.1406 65.6094ZM35.4531 62.5625L34.3669 61.528L34.3663 61.5287L35.4531 62.5625ZM38.4062 57.9688L39.7938 58.5386L39.7973 58.53L38.4062 57.9688ZM44.3125 60.4531L42.9475 59.8311L42.9443 59.8383L42.9411 59.8455L44.3125 60.4531ZM39.8594 66.7812L38.8359 65.6846L38.8267 65.6933L39.8594 66.7812ZM18.1562 70.5312L17.4854 71.8729L17.4923 71.8763L17.4993 71.8797L18.1562 70.5312ZM11.7344 65.75L10.6308 66.766L10.6395 66.7753L11.7344 65.75ZM7.375 59.0938L5.9945 59.6805L5.99896 59.6909L6.00357 59.7013L7.375 59.0938ZM7.1875 37.2031L5.78884 36.6611L5.78588 36.6688L5.78301 36.6764L7.1875 37.2031ZM11.2656 30.6406L10.1781 29.6075L10.169 29.6171L11.2656 30.6406ZM17.6406 26.1875L18.2482 27.5589L18.2554 27.5557L18.2626 27.5525L17.6406 26.1875ZM29.5469 24.8281L29.3059 26.3086L29.325 26.3118L29.3442 26.3144L29.5469 24.8281ZM37.2344 28.3438L36.2208 29.4495L36.2283 29.4564L36.236 29.4632L37.2344 28.3438ZM39.9531 32.375L38.5586 32.9275L41.4531 32.375H39.9531ZM39.7656 11.75L38.271 11.8772L38.2713 11.8799L39.7656 11.75ZM38.7812 8.23438L37.4679 8.95899L37.4829 8.98624L37.4991 9.01284L38.7812 8.23438ZM26.4531 7.85938L25.2945 6.90672L25.2922 6.90952L26.4531 7.85938ZM24.7656 15.9219V17.4219H26.2656V15.9219H24.7656ZM19.4219 15.9219H17.9219V17.4219H19.4219V15.9219ZM14.1719 6.21875L13.7114 7.64631L13.7384 7.65503L13.7658 7.66273L14.1719 6.21875ZM8.45312 6.3125L9.10031 7.6657L9.12384 7.65445L9.14697 7.64238L8.45312 6.3125ZM6.71875 7.67188L5.53468 6.75093L5.52721 6.7607L6.71875 7.67188ZM5.82812 9.45312L4.38584 9.04104L4.37897 9.06507L4.37291 9.08932L5.82812 9.45312ZM5.59375 18.8281V20.3281H7.09375V18.8281H5.59375ZM0.296875 18.8281H-1.20312V20.3281H0.296875V18.8281ZM3.25 3.78125L2.1721 2.73812L2.17152 2.73872L3.25 3.78125ZM6.53125 1.53125L7.11796 2.91175L7.13245 2.90559L7.1468 2.89913L6.53125 1.53125ZM14.5 1.10938L14.1362 2.56459L14.1553 2.56937L14.1746 2.57365L14.5 1.10938ZM17.5 2.375L16.6577 3.61621L16.683 3.63336L16.709 3.64946L17.5 2.375ZM19.9375 4.57812L18.7623 5.51022L18.7702 5.52029L18.7784 5.53024L19.9375 4.57812ZM22 7.76562L20.6719 8.46288L21.9358 10.8703L23.2981 8.51718L22 7.76562ZM26.5 2.46875L27.3696 3.69094L27.374 3.68779L26.5 2.46875ZM38.875 1.67188L38.3313 3.06988L38.3468 3.0759L38.3624 3.08157L38.875 1.67188ZM43 4.625L41.81 5.53823L41.8219 5.55367L41.8341 5.5688L43 4.625ZM40.9844 44.75C40.9844 42.0567 40.6934 39.6944 40.0732 37.696L37.208 38.5852C37.7129 40.2119 37.9844 42.2558 37.9844 44.75H40.9844ZM40.082 37.7253C39.4953 35.6892 38.5583 33.9584 37.2313 32.5946L35.0812 34.6867C36.0042 35.6354 36.7234 36.9046 37.1993 38.5559L40.082 37.7253ZM37.2452 32.609C35.9306 31.2214 34.2983 30.2331 32.3879 29.6317L31.4871 32.4933C32.9517 32.9544 34.1319 33.6849 35.0673 34.6722L37.2452 32.609ZM32.3879 29.6317C30.5213 29.0441 28.3946 28.7656 26.0312 28.7656V31.7656C28.1679 31.7656 29.9787 32.0184 31.4871 32.4933L32.3879 29.6317ZM26.0554 28.7658C23.8837 28.7308 21.832 29.1882 19.9229 30.1427L21.2646 32.826C22.7305 32.0931 24.3038 31.738 26.0071 31.7654L26.0554 28.7658ZM19.9129 30.1478C18.0736 31.0848 16.4654 32.3673 15.0921 33.9809L17.3767 35.9253C18.5033 34.6015 19.8014 33.5715 21.2746 32.8209L19.9129 30.1478ZM15.0902 33.9831C13.7483 35.5659 12.6953 37.4086 11.9218 39.4939L14.7345 40.5373C15.3984 38.7476 16.283 37.2154 17.3785 35.9232L15.0902 33.9831ZM11.9171 39.5067C11.167 41.5864 10.7969 43.7908 10.7969 46.1094H13.7969C13.7969 44.1154 14.1142 42.2574 14.7392 40.5245L11.9171 39.5067ZM10.7969 46.1094V51.2656H13.7969V46.1094H10.7969ZM10.7969 51.2656C10.7969 53.4332 11.1531 55.5383 11.8655 57.5737L14.697 56.5826C14.0969 54.868 13.7969 53.0981 13.7969 51.2656H10.7969ZM11.8681 57.5811C12.58 59.5812 13.5862 61.3766 14.8904 62.9553L17.2033 61.0447C16.1325 59.7484 15.295 58.2626 14.6944 56.5751L11.8681 57.5811ZM14.8904 62.9553C16.2089 64.5514 17.8059 65.8344 19.6689 66.8004L21.0499 64.1371C19.5378 63.3531 18.2598 62.3236 17.2033 61.0447L14.8904 62.9553ZM19.6886 66.8104C21.6001 67.7661 23.6916 68.2344 25.9375 68.2344V65.2344C24.1209 65.2344 22.4937 64.8589 21.0302 64.1271L19.6886 66.8104ZM25.9375 68.2344C27.9916 68.2344 29.9411 67.8151 31.7692 66.9713L30.512 64.2474C29.0901 64.9037 27.5709 65.2344 25.9375 65.2344V68.2344ZM31.7594 66.9758C33.5866 66.1484 35.1843 65.0215 36.54 63.5963L34.3663 61.5287C33.2845 62.666 32.0072 63.5703 30.5219 64.2429L31.7594 66.9758ZM36.5393 63.597C37.9233 62.1438 39.0074 60.4532 39.7938 58.5386L37.0187 57.3989C36.3676 58.9843 35.4829 60.3562 34.3669 61.528L36.5393 63.597ZM39.7973 58.53C40.5921 56.5603 40.9844 54.4624 40.9844 52.25H37.9844C37.9844 54.1001 37.6579 55.8147 37.0152 57.4075L39.7973 58.53ZM40.9844 52.25V44.75H37.9844V52.25H40.9844ZM44.5 52.25C44.5 55.0583 43.9745 57.5775 42.9475 59.8311L45.6775 61.0751C46.9005 58.3913 47.5 55.4417 47.5 52.25H44.5ZM42.9411 59.8455C41.9248 62.1394 40.5554 64.0798 38.8359 65.6847L40.8829 67.8778C42.9133 65.9827 44.5127 63.7043 45.6839 61.0607L42.9411 59.8455ZM38.8267 65.6933C37.1228 67.3106 35.1589 68.5682 32.9242 69.4679L34.0446 72.2508C36.6223 71.213 38.9085 69.7519 40.892 67.8692L38.8267 65.6933ZM32.9242 69.4679C30.6982 70.3641 28.3729 70.8125 25.9375 70.8125V73.8125C28.7521 73.8125 31.4581 73.2922 34.0446 72.2508L32.9242 69.4679ZM25.9375 70.8125C23.4118 70.8125 21.0431 70.2691 18.8132 69.1828L17.4993 71.8797C20.1444 73.1684 22.9632 73.8125 25.9375 73.8125V70.8125ZM18.8271 69.1896C16.5469 68.0495 14.5502 66.5623 12.8292 64.7247L10.6395 66.7753C12.606 68.8752 14.8906 70.5755 17.4854 71.8729L18.8271 69.1896ZM12.8379 64.734C11.1374 62.887 9.77441 60.8064 8.74643 58.4862L6.00357 59.7013C7.16309 62.3186 8.70631 64.6755 10.6308 66.766L12.8379 64.734ZM8.7555 58.507C7.76602 56.1789 7.28125 53.8621 7.28125 51.5469H4.28125C4.28125 54.2941 4.85898 57.0086 5.9945 59.6805L8.7555 58.507ZM7.28125 51.5469V45.125H4.28125V51.5469H7.28125ZM7.28125 45.125C7.28125 42.516 7.72026 40.0544 8.59199 37.7298L5.78301 36.6764C4.77974 39.3518 4.28125 42.1715 4.28125 45.125H7.28125ZM8.58616 37.7451C9.48901 35.4152 10.7486 33.393 12.3622 31.6641L10.169 29.6171C8.2827 31.6382 6.82349 33.9911 5.78884 36.6611L8.58616 37.7451ZM12.3531 31.6737C13.9923 29.9483 15.9521 28.5762 18.2482 27.5589L17.033 24.8161C14.3917 25.9863 12.1015 27.5829 10.1781 29.6075L12.3531 31.6737ZM18.2626 27.5525C20.5124 26.5273 23.0619 26 25.9375 26V23C22.6881 23 19.7064 23.5977 17.0186 24.8225L18.2626 27.5525ZM25.9375 26C26.9005 26 28.0208 26.0994 29.3059 26.3086L29.7879 23.3476C28.3854 23.1193 27.0995 23 25.9375 23V26ZM29.3442 26.3144C30.5817 26.4831 31.7951 26.8209 32.9872 27.3318L34.169 24.5744C32.7361 23.9603 31.262 23.5481 29.7495 23.3419L29.3442 26.3144ZM32.9872 27.3318C34.1341 27.8234 35.2117 28.5245 36.2208 29.4495L38.248 27.238C37.007 26.1005 35.6471 25.2079 34.169 24.5744L32.9872 27.3318ZM36.236 29.4632C37.1934 30.3171 37.9755 31.4559 38.5586 32.9275L41.3476 31.8225C40.6183 29.9816 39.5879 28.4329 38.2328 27.2243L36.236 29.4632ZM41.4531 32.375V17.0938H38.4531V32.375H41.4531ZM41.4531 17.0938C41.4531 14.9436 41.39 13.1157 41.26 11.6201L38.2713 11.8799C38.3912 13.2593 38.4531 14.9939 38.4531 17.0938H41.4531ZM41.2602 11.6228C41.1236 10.0178 40.7558 8.59622 40.0634 7.45591L37.4991 9.01284C37.8692 9.62253 38.1576 10.5447 38.271 11.8772L41.2602 11.6228ZM40.0946 7.50976C39.3932 6.23852 38.2787 5.37411 36.8771 4.89358L35.9041 7.73142C36.6901 8.00089 37.1693 8.41773 37.4679 8.95899L40.0946 7.50976ZM36.8771 4.89358C35.5581 4.44136 33.8696 4.25 31.8906 4.25V7.25C33.7242 7.25 35.0356 7.43364 35.9041 7.73142L36.8771 4.89358ZM31.8906 4.25C29.1426 4.25 26.8281 5.04145 25.2945 6.90672L27.6118 8.81203C28.3906 7.8648 29.7011 7.25 31.8906 7.25V4.25ZM25.2922 6.90952C23.8865 8.62762 23.2656 10.8589 23.2656 13.4375H26.2656C26.2656 11.3286 26.7698 9.84113 27.6141 8.80923L25.2922 6.90952ZM23.2656 13.4375V15.9219H26.2656V13.4375H23.2656ZM24.7656 14.4219H19.4219V17.4219H24.7656V14.4219ZM20.9219 15.9219V13.4375H17.9219V15.9219H20.9219ZM20.9219 13.4375C20.9219 11.9223 20.6577 10.5321 20.069 9.31541L17.3685 10.6221C17.7173 11.3429 17.9219 12.2652 17.9219 13.4375H20.9219ZM20.069 9.31541C19.5103 8.16088 18.7496 7.1819 17.7808 6.40682L15.9067 8.74943C16.5004 9.22435 16.9897 9.83912 17.3685 10.6221L20.069 9.31541ZM17.7808 6.40682C16.8366 5.65147 15.7639 5.10831 14.578 4.77477L13.7658 7.66273C14.5799 7.89169 15.2884 8.25478 15.9067 8.74943L17.7808 6.40682ZM14.6324 4.79119C13.5129 4.43006 12.3574 4.25 11.1719 4.25V7.25C12.0489 7.25 12.8934 7.38244 13.7114 7.64631L14.6324 4.79119ZM11.1719 4.25C9.91708 4.25 8.75378 4.46375 7.75928 4.98262L9.14697 7.64238C9.58997 7.41125 10.2392 7.25 11.1719 7.25V4.25ZM7.80594 4.9593C6.90218 5.39153 6.13132 5.98391 5.53472 6.75097L7.90278 8.59278C8.18118 8.23484 8.56657 7.92097 9.10031 7.6657L7.80594 4.9593ZM5.52721 6.7607C5.0045 7.44424 4.62386 8.20798 4.38584 9.04104L7.27041 9.86521C7.40739 9.38577 7.6205 8.96201 7.91029 8.58305L5.52721 6.7607ZM4.37291 9.08932C4.19113 9.81645 4.09375 10.533 4.09375 11.2344H7.09375C7.09375 10.8107 7.15262 10.3398 7.28334 9.81693L4.37291 9.08932ZM4.09375 11.2344V18.8281H7.09375V11.2344H4.09375ZM5.59375 17.3281H0.296875V20.3281H5.59375V17.3281ZM1.79688 18.8281V11.2344H-1.20312V18.8281H1.79688ZM1.79688 11.2344C1.79688 9.951 2.02802 8.77244 2.47936 7.6839L-0.291863 6.53485C-0.903017 8.00881 -1.20312 9.58025 -1.20312 11.2344H1.79688ZM2.47936 7.6839C2.94316 6.56534 3.56124 5.61748 4.32848 4.82378L2.17152 2.73872C1.12626 3.82002 0.306845 5.09091 -0.291863 6.53485L2.47936 7.6839ZM4.3279 4.82438C5.12481 4.00091 6.05118 3.36513 7.11796 2.91175L5.94454 0.150753C4.51132 0.759872 3.25019 1.62409 2.1721 2.73812L4.3279 4.82438ZM7.1468 2.89913C8.19386 2.42795 9.32666 2.1875 10.5625 2.1875V-0.8125C8.92334 -0.8125 7.36864 -0.490452 5.9157 0.163368L7.1468 2.89913ZM10.5625 2.1875C11.9736 2.1875 13.159 2.32029 14.1362 2.56459L14.8638 -0.34584C13.591 -0.66404 12.1514 -0.8125 10.5625 -0.8125V2.1875ZM14.1746 2.57365C15.1315 2.78629 15.953 3.13796 16.6577 3.61621L18.3423 1.13379C17.297 0.424541 16.1185 -0.0675392 14.8254 -0.354904L14.1746 2.57365ZM16.709 3.64946C17.4565 4.11343 18.1418 4.72793 18.7623 5.51022L21.1127 3.64603C20.2957 2.61582 19.356 1.76157 18.291 1.10054L16.709 3.64946ZM18.7784 5.53024C19.4187 6.30974 20.0521 7.28223 20.6719 8.46288L23.3281 7.06837C22.6354 5.74902 21.8938 4.59651 21.0966 3.62601L18.7784 5.53024ZM23.2981 8.51718C24.6036 6.26227 25.9722 4.68525 27.3696 3.69094L25.6304 1.24656C23.7778 2.56475 22.1464 4.51898 20.7019 7.01407L23.2981 8.51718ZM27.374 3.68779C28.7287 2.71654 30.4537 2.1875 32.6406 2.1875V-0.8125C29.9525 -0.8125 27.5838 -0.154041 25.626 1.24971L27.374 3.68779ZM32.6406 2.1875C34.9866 2.1875 36.8677 2.50068 38.3313 3.06988L39.4187 0.273869C37.5073 -0.469425 35.2322 -0.8125 32.6406 -0.8125V2.1875ZM38.3624 3.08157C39.835 3.61705 40.9666 4.4392 41.81 5.53823L44.19 3.71177C42.9709 2.1233 41.3525 0.976696 39.3876 0.262184L38.3624 3.08157ZM41.8341 5.5688C42.7236 6.6676 43.406 8.11769 43.8353 9.97791L46.7585 9.30334C46.2502 7.10106 45.4014 5.2074 44.1659 3.6812L41.8341 5.5688ZM43.8353 9.97791C44.2719 11.8699 44.5 14.1423 44.5 16.8125H47.5C47.5 13.9827 47.2593 11.4738 46.7585 9.30334L43.8353 9.97791ZM44.5 16.8125V52.25H47.5V16.8125H44.5ZM94.3281 43.9531L95.8281 43.9683L95.8281 43.9614L94.3281 43.9531ZM91.2344 61.8125L89.8498 61.2356L89.8468 61.2426L89.844 61.2497L91.2344 61.8125ZM80.125 72.3125L78.6326 72.463L78.8032 74.1555L80.4611 73.7744L80.125 72.3125ZM79.5625 66.7344V65.2344H77.9036L78.0701 66.8849L79.5625 66.7344ZM85.375 60.875L86.7709 61.4242L86.7738 61.4165L85.375 60.875ZM85.2812 11.75L83.9443 12.4302L83.9515 12.4443L83.959 12.4583L85.2812 11.75ZM81.5312 7.67188L80.7595 8.95816L80.7707 8.96478L81.5312 7.67188ZM68.9219 7.71875L69.6504 9.03001L69.6584 9.02548L68.9219 7.71875ZM64.9375 11.8438L63.6146 11.1367L63.6101 11.1451L64.9375 11.8438ZM62.9688 18.4062L61.4842 18.1916L61.4829 18.2004L61.4818 18.2092L62.9688 18.4062ZM64.2344 60.7812L62.7938 61.1995L62.7957 61.2058L64.2344 60.7812ZM66.2969 65.1875L65.1186 66.1158L65.1272 66.1267L65.1359 66.1374L66.2969 65.1875ZM69.1094 66.7344L70.6092 66.7596L70.6348 65.2344H69.1094V66.7344ZM69.0156 72.3125L68.7407 73.7871L70.4856 74.1124L70.5154 72.3377L69.0156 72.3125ZM64.1875 70.3438L63.292 71.5471L63.3076 71.5587L63.3236 71.57L64.1875 70.3438ZM60.7188 66.7344L59.4748 67.5727L59.4791 67.579L59.4835 67.5853L60.7188 66.7344ZM58.3281 61.9062L56.91 62.3952L56.9127 62.4029L58.3281 61.9062ZM56.875 56.2812L55.3974 56.5393L55.3981 56.5433L56.875 56.2812ZM56.125 50.2812L54.6277 50.372L54.6285 50.3842L54.6294 50.3963L56.125 50.2812ZM57.3906 14.9375L58.8388 15.3283L58.8404 15.3226L57.3906 14.9375ZM59.5469 9.35938L58.2246 8.65103L58.22 8.65976L59.5469 9.35938ZM63.0625 4.8125L64.0727 5.9213L64.0739 5.92023L63.0625 4.8125ZM68.1719 1.71875L67.6452 0.314236L67.6379 0.317017L68.1719 1.71875ZM82.1875 1.57812L81.7198 3.00338L81.7264 3.00548L82.1875 1.57812ZM87.3438 4.29688L86.3911 5.45551L86.3973 5.46064L86.4036 5.46569L87.3438 4.29688ZM93.0156 13.8594L91.5674 14.2502L91.569 14.256L93.0156 13.8594ZM94.0938 20.0938L92.5991 20.2201L92.6 20.2315L92.6012 20.243L94.0938 20.0938ZM94.4219 26.8906L95.9219 26.8989V26.8906H94.4219ZM92.8282 43.938C92.7977 46.9608 92.5534 49.9845 92.0951 53.0097L95.0612 53.4591C95.5403 50.2967 95.7961 47.133 95.828 43.9683L92.8282 43.938ZM92.0951 53.0097C91.6428 55.9944 90.892 58.7342 89.8498 61.2356L92.619 62.3894C93.7642 59.6408 94.5759 56.6618 95.0612 53.4591L92.0951 53.0097ZM89.844 61.2497C88.8474 63.7117 87.511 65.7949 85.8434 67.52L88.0004 69.605C89.9578 67.5801 91.4963 65.1633 92.6248 62.3753L89.844 61.2497ZM85.8434 67.52C84.2468 69.1716 82.2455 70.2859 79.7889 70.8506L80.4611 73.7744C83.442 73.0891 85.9719 71.7034 88.0004 69.605L85.8434 67.52ZM81.6174 72.162L81.0549 66.5839L78.0701 66.8849L78.6326 72.463L81.6174 72.162ZM79.5625 68.2344C81.1815 68.2344 82.6056 67.5001 83.8107 66.295L81.6893 64.1737C80.8944 64.9687 80.1935 65.2344 79.5625 65.2344V68.2344ZM83.8107 66.295C85.0063 65.0994 85.9765 63.4431 86.7709 61.4242L83.9791 60.3258C83.2735 62.1194 82.4937 63.3694 81.6893 64.1737L83.8107 66.295ZM86.7738 61.4165C87.5732 59.3514 88.1894 56.8822 88.638 54.03L85.6745 53.5638C85.2481 56.2741 84.6768 58.5236 83.9762 60.3335L86.7738 61.4165ZM88.638 54.03C89.0903 51.1545 89.3125 47.9024 89.3125 44.2812H86.3125C86.3125 47.7851 86.0972 50.8767 85.6745 53.5638L88.638 54.03ZM89.3125 44.2812V26.8906H86.3125V44.2812H89.3125ZM89.3125 26.8906C89.3125 23.6158 89.1219 20.6508 88.7342 18.0016L85.7658 18.4359C86.1281 20.9117 86.3125 23.7279 86.3125 26.8906H89.3125ZM88.7342 18.0016C88.3413 15.3167 87.6437 12.9834 86.6035 11.0417L83.959 12.4583C84.7938 14.0166 85.4087 15.9958 85.7658 18.4359L88.7342 18.0016ZM86.6182 11.0698C85.5931 9.05502 84.1522 7.47331 82.2918 6.37897L80.7707 8.96478C82.0978 9.74544 83.1569 10.8825 83.9443 12.4302L86.6182 11.0698ZM82.303 6.38564C80.4414 5.26866 78.1517 4.76562 75.5312 4.76562V7.76562C77.7858 7.76562 79.4961 8.20009 80.7595 8.95811L82.303 6.38564ZM75.5312 4.76562C72.6752 4.76562 70.1958 5.27888 68.1854 6.41202L69.6584 9.02548C71.0855 8.22112 73.0123 7.76562 75.5312 7.76562V4.76562ZM68.1934 6.40751C66.2373 7.49426 64.7101 9.08705 63.6146 11.1367L66.2604 12.5508C67.1024 10.9755 68.2315 9.81824 69.6503 9.02999L68.1934 6.40751ZM63.6101 11.1451C62.5731 13.1155 61.8766 15.4771 61.4842 18.1916L64.4533 18.6209C64.8109 16.1479 65.4269 14.1345 66.2649 12.5424L63.6101 11.1451ZM61.4818 18.2092C61.1276 20.8817 60.9531 23.871 60.9531 27.1719H63.9531C63.9531 23.9727 64.1224 21.1183 64.4557 18.6033L61.4818 18.2092ZM60.9531 27.1719V44.2812H63.9531V27.1719H60.9531ZM60.9531 44.2812C60.9531 47.824 61.1112 51.022 61.4313 53.8706L64.4125 53.5356C64.1076 50.8217 63.9531 47.7385 63.9531 44.2812H60.9531ZM61.4313 53.8706C61.7499 56.7068 62.2004 59.1554 62.7939 61.1995L65.6749 60.363C65.1433 58.5321 64.7188 56.262 64.4125 53.5356L61.4313 53.8706ZM62.7957 61.2058C63.3872 63.2103 64.1436 64.8782 65.1186 66.1158L67.4751 64.2592C66.8252 63.4343 66.2065 62.1647 65.673 60.3567L62.7957 61.2058ZM65.1359 66.1374C66.1747 67.407 67.5033 68.2344 69.1094 68.2344V65.2344C68.6529 65.2344 68.1065 65.0305 67.4578 64.2376L65.1359 66.1374ZM67.6096 66.7092L67.5158 72.2873L70.5154 72.3377L70.6092 66.7596L67.6096 66.7092ZM69.2906 70.8379C67.6342 70.5291 66.2309 69.9485 65.0514 69.1175L63.3236 71.57C64.8941 72.6765 66.7096 73.4084 68.7407 73.7871L69.2906 70.8379ZM65.083 69.1404C63.8736 68.2404 62.8314 67.1571 61.954 65.8834L59.4835 67.5853C60.5436 69.1242 61.8139 70.4471 63.292 71.5471L65.083 69.1404ZM61.9627 65.8961C61.0714 64.5737 60.3299 63.0808 59.7435 61.4096L56.9127 62.4029C57.5764 64.2942 58.4286 66.0201 59.4748 67.5727L61.9627 65.8961ZM59.7462 61.4173C59.1474 59.6807 58.6824 57.8817 58.3519 56.0192L55.3981 56.5433C55.7551 58.5558 56.2589 60.5068 56.9101 62.3952L59.7462 61.4173ZM58.3526 56.0232C58.0173 54.1027 57.7732 52.1505 57.6206 50.1662L54.6294 50.3963C54.7893 52.4745 55.0452 54.5223 55.3974 56.5393L58.3526 56.0232ZM57.6223 50.1905C57.499 48.1562 57.4375 46.1866 57.4375 44.2812H54.4375C54.4375 46.2509 54.501 48.2813 54.6277 50.372L57.6223 50.1905ZM57.4375 44.2812V27.3594H54.4375V44.2812H57.4375ZM57.4375 27.3594C57.4375 25.35 57.5441 23.3075 57.7577 21.2317L54.7735 20.9245C54.5497 23.0987 54.4375 25.2438 54.4375 27.3594H57.4375ZM57.7577 21.2317C57.9686 19.1831 58.3295 17.2157 58.8388 15.3283L55.9424 14.5467C55.3892 16.5968 55.0001 18.7232 54.7735 20.9245L57.7577 21.2317ZM58.8404 15.3226C59.3445 13.4247 60.0234 11.6716 60.8737 10.059L58.22 8.65976C57.2578 10.4846 56.4993 12.4503 55.9409 14.5524L58.8404 15.3226ZM60.8691 10.0677C61.7297 8.46133 62.7979 7.0828 64.0727 5.9213L62.0523 3.7037C60.5146 5.1047 59.2391 6.75742 58.2247 8.65104L60.8691 10.0677ZM64.0739 5.92023C65.3611 4.74498 66.8987 3.80891 68.7059 3.12048L67.6379 0.317017C65.5075 1.12859 63.6389 2.25502 62.0511 3.70477L64.0739 5.92023ZM68.6986 3.12325C70.4947 2.44968 72.6377 2.09375 75.1562 2.09375V-0.90625C72.3623 -0.90625 69.849 -0.512184 67.6452 0.314255L68.6986 3.12325ZM75.1562 2.09375C77.7266 2.09375 79.9059 2.40816 81.7198 3.00336L82.6552 0.152889C80.4691 -0.564415 77.9609 -0.90625 75.1562 -0.90625V2.09375ZM81.7264 3.00548C83.6087 3.61364 85.1531 4.43764 86.3911 5.45551L88.2964 3.13824C86.7219 1.84361 84.8288 0.855114 82.6486 0.150768L81.7264 3.00548ZM86.4036 5.46569C87.6895 6.49996 88.7362 7.74137 89.5493 9.19935L92.1694 7.73815C91.17 5.94613 89.873 4.40629 88.2839 3.12806L86.4036 5.46569ZM89.5493 9.19935C90.3904 10.7075 91.0651 12.3887 91.5674 14.2502L94.4638 13.4686C93.9036 11.3926 93.1409 9.48004 92.1694 7.73815L89.5493 9.19935ZM91.569 14.256C92.0736 16.0962 92.4185 18.083 92.5991 20.2201L95.5884 19.9674C95.394 17.667 95.0202 15.4976 94.4622 13.4627L91.569 14.256ZM92.6012 20.243C92.8147 22.3778 92.9219 24.5935 92.9219 26.8906H95.9219C95.9219 24.5003 95.8103 22.1847 95.5863 19.9445L92.6012 20.243ZM92.9219 26.8824L92.8281 43.9449L95.8281 43.9614L95.9219 26.8989L92.9219 26.8824Z" fill="#583933"/>
</svg>
