<svg width="41" height="73" viewBox="0 0 41 73" fill="none" xmlns="http://www.w3.org/2000/svg">
<path d="M40.7168 43.5801C40.6855 46.6738 40.4512 49.7988 40.0137 52.9551C39.5762 56.1113 38.7637 59.0332 37.5762 61.7207C36.4199 64.4082 34.7793 66.7363 32.6543 68.7051C30.5605 70.6738 27.8105 72.0488 24.4043 72.8301L23.373 62.2832C25.5293 62.2832 27.1543 60.6895 28.248 57.502C29.3418 54.2832 29.8887 49.7363 29.8887 43.8613V27.6895C29.8887 25.0645 29.748 22.7207 29.4668 20.6582C29.2168 18.5645 28.748 16.7988 28.0605 15.3613C27.373 13.9238 26.4355 12.8301 25.248 12.0801C24.0918 11.3301 22.623 10.9551 20.8418 10.9551C18.8418 10.9551 17.2012 11.3457 15.9199 12.127C14.6699 12.9082 13.6855 14.0332 12.9668 15.502C12.248 16.9395 11.748 18.7207 11.4668 20.8457C11.2168 22.9395 11.0918 25.3145 11.0918 27.9707V43.8613C11.0918 46.7363 11.1543 49.3145 11.2793 51.5957C11.4355 53.877 11.6855 55.8145 12.0293 57.4082C12.4043 58.9707 12.9043 60.1738 13.5293 61.0176C14.1543 61.8613 14.9355 62.2832 15.873 62.2832L15.7793 72.7363C13.4043 72.2988 11.3574 71.5488 9.63867 70.4863C7.95117 69.4238 6.5293 68.1582 5.37305 66.6895C4.24805 65.1895 3.3418 63.5176 2.6543 61.6738C1.9668 59.8301 1.45117 57.9238 1.10742 55.9551C0.763672 53.9551 0.529297 51.9238 0.404297 49.8613C0.310547 47.7988 0.263672 45.7988 0.263672 43.8613V28.1113C0.263672 26.0176 0.373047 23.8926 0.591797 21.7363C0.810547 19.5801 1.20117 17.502 1.76367 15.502C2.35742 13.4707 3.13867 11.5645 4.10742 9.7832C5.07617 8.00195 6.31055 6.45508 7.81055 5.14258C9.31055 3.83008 11.1074 2.79883 13.2012 2.04883C15.2949 1.26758 17.7324 0.876953 20.5137 0.876953C24.7637 0.876953 28.2168 1.61133 30.873 3.08008C33.5293 4.51758 35.5918 6.4707 37.0605 8.93945C38.5293 11.4082 39.5137 14.2676 40.0137 17.5176C40.5449 20.7363 40.8105 24.127 40.8105 27.6895L40.7168 43.5801Z" fill="#583933"/>
</svg>
