<svg width="42" height="73" viewBox="0 0 42 73" fill="none" xmlns="http://www.w3.org/2000/svg" >
<path d="M41.125 50.1426C41.125 53.3301 40.625 56.2832 39.625 59.002C38.625 61.6895 37.2188 64.0176 35.4062 65.9863C33.625 67.9551 31.4844 69.502 28.9844 70.627C26.5156 71.7207 23.8125 72.2676 20.875 72.2676C17.9062 72.2676 15.1875 71.8145 12.7188 70.9082C10.25 70.002 8.125 68.6113 6.34375 66.7363C4.5625 64.8613 3.17188 62.502 2.17188 59.6582C1.17188 56.8145 0.671875 53.4707 0.671875 49.627V0.876953H11.5V49.627C11.5 51.9395 11.7344 53.9082 12.2031 55.5332C12.6719 57.127 13.3125 58.4238 14.125 59.4238C14.9688 60.4238 15.9531 61.1582 17.0781 61.627C18.2344 62.0645 19.5 62.2832 20.875 62.2832C22.4375 62.2832 23.7969 61.9863 24.9531 61.3926C26.1406 60.7676 27.125 59.8926 27.9062 58.7676C28.7188 57.6426 29.3125 56.2988 29.6875 54.7363C30.0938 53.1738 30.2969 51.4395 30.2969 49.5332V47.002C30.2969 44.9395 29.9375 42.9863 29.2188 41.1426C28.5312 39.2676 27.5469 37.5332 26.2656 35.9395C25.6094 35.0957 24.9688 34.252 24.3438 33.4082C23.75 32.5645 23.2188 31.7207 22.75 30.877C22.2812 30.002 21.8906 29.127 21.5781 28.252C21.2969 27.3457 21.1562 26.4238 21.1562 25.4863C21.1562 24.7676 21.2031 24.0332 21.2969 23.2832C21.4219 22.5332 21.6094 21.7676 21.8594 20.9863C22.1406 20.1738 22.5156 19.3145 22.9844 18.4082C23.4531 17.502 24.0469 16.5176 24.7656 15.4551L36.0156 18.5957C35.7344 18.9395 35.4375 19.2988 35.125 19.6738C34.8438 20.0176 34.5781 20.3457 34.3281 20.6582C34.0781 20.9707 33.8438 21.252 33.625 21.502C33.4375 21.7207 33.3281 21.877 33.2969 21.9707C32.7656 22.6895 32.3594 23.2988 32.0781 23.7988C31.7969 24.2988 31.6562 24.8613 31.6562 25.4863C31.6562 26.4863 32.0625 27.5645 32.875 28.7207C33.7188 29.877 34.6875 31.0801 35.7812 32.3301H35.7344C37.3594 34.1738 38.6562 36.2051 39.625 38.4238C40.625 40.6113 41.125 43.1895 41.125 46.1582V50.1426Z" fill="#583933"/>
</svg>
